<svg class="svg-biglogo" xmlns="http://www.w3.org/2000/svg"  viewBox="0 0 360 375"><title>Imported Layers</title><desc>Created with Sketch.</desc><g fill="none" fill-rule="evenodd"><g><g><path d="M91 261.4c.03.35.05.69.08 1.03.5-.18 1.02-.29 1.54-.32-.02-.28-.03-.54-.05-.82-.74-10.96-1.53-22.66-2.31-34.36-.87-11.69-1.74-23.38-2.55-34.34-.81-10.96-1.7-21.18-2.4-29.95-.7-8.76-1.39-16.06-1.83-21.17l-.74-8.03s.15 2.93.4 8.06c.28 5.12.62 12.44 1.16 21.21.55 8.78 1.1 19.02 1.84 29.99.74 10.97 1.53 22.66 2.31 34.36.87 11.69 1.74 23.38 2.55 34.34" fill="#fff"/><path d="M279.06 141.47c-.44 5.11-1.13 12.41-1.83 21.17-.7 8.77-1.59 18.99-2.4 29.95-.81 10.96-1.68 22.65-2.54 34.34-.79 11.7-1.58 23.4-2.31 34.36l-.06.95c.52-.13 1.06-.18 1.57-.14.02-.23.03-.46.05-.7.82-10.96 1.69-22.65 2.55-34.34.79-11.7 1.58-23.39 2.31-34.36.75-10.96 1.3-21.21 1.85-29.98.54-8.78.87-16.1 1.16-21.22.25-5.13.39-8.06.39-8.06l-.74 8.03" fill="#fff"/><path d="M360.1 300.93c-12.68-2.8-25.44-5.3-38.25-7.5l-11.79 37.89c-10.65-2.16-21.12-4.07-31.46-5.73l-.8 11.16c24.03 2.99 47.91 7.09 71.53 12.32-.22-.83-.47-1.65-.7-2.47l-10.83-3.27 10.28 1.33c-1.12-4-2.27-7.99-3.45-11.98l-7.28-2.71 6.79 1.06-.9-3.02-7.02-2.34 6.56.82c-.39-1.31-.77-2.62-1.17-3.94 3.23-3.9 6.51-7.79 9.83-11.65l-3.9-1.53 4.71.59c.39-.47.79-.93 1.19-1.39l-9.07-2.82 10.03 1.7c.91-1.05 1.83-2.09 2.75-3.14l-3.95-1.51 4.91.41c.66-.76 1.32-1.52 1.99-2.28" fill="#fff"/><path d="M48.66 331.32l-11.69-37.58c-12.23 2.12-24.42 4.51-36.54 7.19.64.74 1.26 1.49 1.89 2.23l4.26-.36-3.45 1.32c.92 1.08 1.84 2.16 2.75 3.25l9.53-1.62-8.64 2.68L8 309.9l4.24-.53-3.53 1.38c3.51 4.23 6.99 8.48 10.41 12.74-.32.99-.62 1.98-.94 2.96l6.29-.78-6.75 2.25c-.31.98-.62 1.95-.93 2.93l5.64-.88-6.08 2.26c-1.29 4.1-2.55 8.21-3.78 12.32l9.41-1.22-9.95 3c-.28.91-.56 1.83-.83 2.74 24.09-5.33 48.45-9.49 72.95-12.51l-.82-11.48c-11.38 1.78-22.92 3.85-34.67 6.24" fill="#fff"/><path d="M209.27 358.8s-28.29 1.98-59.31-.39c0 0 30.11 4.74 59.31.39" fill="#fff"/><path d="M166.62 91.85c-.11-.54-.2-1.08-.29-1.62-23.05 1.84-39.26 5.08-39.26 5.08 13.76-1.62 27.2-2.72 39.55-3.46" fill="#fff"/><path d="M285.27 264.68l11.43-158.64c-1.49 3.36-3.24 6.57-5.23 9.62l-10.7 148.39c1.5.2 3 .41 4.5.63" fill="#fff"/><path d="M69.57 102.83l.78.67 1.21 13.54.28-12.28.55.47.3 3.1.22-2.66.64.55 11.13 156.93 2.7-.33-10.02-141.4c3.55-2.02 16.27-5.89 16.27-5.89-6.34.83-14.08 3.98-16.34 4.95l-.13-1.76c4.24-2.77 23.69-8.69 23.69-8.69-9.6 1.25-21.44 6.25-23.79 7.26l-.11-1.59c5.73-2.75 36.46-11.95 36.46-11.95-9.31.62-36.46 10.47-36.46 10.47l-.08.41-.1-1.44c4.48-2.58 21.75-8.28 21.75-8.28-7.88 1.03-18.9 5.8-21.83 7.11l-.14-1.96c3.92-1.93 13.36-5.38 13.36-5.38-4.4.57-10.6 3.33-13.41 4.67l-.13-1.85c5.49-2.54 38.49-16.83 89.64-19.15-.13-.9-.25-1.8-.35-2.71-51.96 2.41-85.41 17.05-90.61 19.47l-1.56-1.32 5.94-3.27-6.71 2.61-1.09-.93 10.8-4.68-11.35 4.21-.79-.67c8.73-3.8 43.19-17.32 95.05-19.57-.05-1.09-.08-2.19-.08-3.29 0-.42.02-.83.03-1.25C104.1 79.59 66.5 97.79 66.1 97.99l-1.37.68 11.94 165.54c1.5-.2 3-.39 4.49-.59L69.57 102.83" fill="#fff"/><path d="M277.26 263.58l10.08-142.23c-.95 1.17-1.94 2.32-2.97 3.43l-9.81 138.44 2.7.36" fill="#fff"/><path d="M274.23 354.74l-3.19-3.41 1.88-26.62c-.9-.14-1.79-.28-2.69-.41l-1.28 18.09c-7.64 2.76-42.35 11.67-42.35 11.67 8.31-.48 37.18-8.95 42.26-10.45l-.11 1.54c-4.96 2.29-27.25 7.98-27.25 7.98 7.83-.88 23.33-5.73 27.18-6.96l-.13 1.8c-3.8 1.56-15.95 4.77-15.95 4.77 4.68-.53 12.98-3.19 15.91-4.17l-.12 1.65c-5.69 1.93-40.22 12.96-87.12 12.96-46.91 0-81.94-11.04-87.7-12.97l-.1-1.53c3.16 1.04 11.07 3.55 15.58 4.06 0 0-11.52-3.05-15.63-4.64l-.13-1.83c4.31 1.37 19.23 6 26.86 6.86 0 0-21.4-5.47-26.92-7.84l-.12-1.59c5.83 1.72 33.79 9.89 41.95 10.36 0 0-33.8-8.67-42.03-11.56l-1.33-18.67-2.69.39 1.92 27.08v.03l-1.34 1.42-1.28-14.1.43 15.02-1.01 1.07-2.16-30c-1.49.23-2.99.46-4.49.7l2.49 34.42 1.39.5c.4.14 40.73 14.21 96.34 14.21 55.6 0 95.32-14.08 95.72-14.22l1.38-.5 2.45-33.89c-1.5-.25-3-.5-4.49-.73l-2.13 29.51zm-92.93 15.3c-48.06 0-84.45-10.62-92.93-13.33l.52-.56 8.18 1.67-7.45-2.44 1.03-1.11 2.04.23-1.45-.85.96-1.03c4.05 1.38 40.19 13.28 89.07 13.28 48.85 0 84.46-11.88 88.49-13.28l3.84 4.1c-8.37 2.71-44.23 13.32-92.3 13.32z" fill="#fff"/><path d="M69.38 293.8c-.31-1.99-1.58-2.75-4.27-2.33l-3 .47.94 6.06 3.11-.48c2.18-.34 3.49-1.98 3.22-3.72" fill="#fff"/><path d="M196.45 282.65l-.45 1.56-2.95 8.07 6.49.07-2.75-8.13-.34-1.57" fill="#fff"/><path d="M112.57 285.67l-3.84.36.63 6.76 4.22-.39c1.08-.1 3.22-.88 2.94-3.82-.24-2.68-2.35-3.06-3.95-2.91" fill="#fff"/><path d="M210.47 282.55l-.23 6.79 4.24.14c1.08.04 3.3-.45 3.4-3.41.1-2.69-1.95-3.33-3.55-3.39l-3.86-.13" fill="#fff"/><path d="M66.83 299.5l-3.46.54 1.03 6.61 3.92-.62c2.39-.37 3.49-1.92 3.16-4.04-.3-1.96-1.88-2.92-4.65-2.49" fill="#fff"/><path d="M131.39 299.25c3.82-.27 5.72-3.07 5.37-8.06-.35-4.98-2.62-7.38-6.44-7.11-3.82.26-5.7 2.96-5.35 7.94.35 4.99 2.59 7.5 6.42 7.23" fill="#fff"/><path d="M226.9 283.24l-.39 6.78 4.23.24c1.09.06 3.31-.38 3.48-3.34.16-2.68-1.87-3.37-3.47-3.46l-3.85-.22" fill="#fff"/><path d="M326.2 273.8c-97.01-18.51-196.66-18.51-293.68 0l1.15 3.48 21.49-3.3-21.02 4.62-.06-.08.7 2.12 14.45-2.01-13.93 3.55.63 1.93 5.58-.59-5.11 1.99 10.69 32.29 5.64-.32-5.17 1.73.59 1.79 14.48-1.87-13.96 3.44.84 2.54.05-.24 25.15-4.34-24.83 5.7.76 2.3c90.13-17.2 167.32-17.2 257.44 0l.77-2.32-24.74-5.68 25.15 4.34.01.05.79-2.38-13.87-3.41 14.38 1.86.6-1.81-5.08-1.7 5.54.32 10.65-32.17-5.04-1.96 5.5.58.65-1.97-14.32-3.65 14.85 2.06.72-2.19-20.6-4.52 21.03 3.23 1.13-3.41zM67.78 308.21l-4.62.72c-.56.09-.84-.12-.93-.68l-2.68-17.18c-.09-.56.12-.84.68-.93l4.8-.75c4-.62 6.32.99 6.76 3.81.28 1.8-.83 3.87-2.32 4.54l.02.11s3.9.33 4.45 3.87c.58 3.73-1.66 5.79-6.16 6.49zm184.44-38.05s-71.99-5.15-141.72 0c0 0 76.07-8.32 141.72 0zm-15.53 16.9c-.28 4.96-4.69 5.34-6.09 5.26l-4.21-.24-.43 7.54c-.02.38-.36.57-1.12.53l-.22-.01c-.76-.05-1.07-.28-1.05-.66l1.01-17.63c.03-.57.29-.8.86-.77l5.51.32c2.33.13 6 1.08 5.74 5.66zm-16.34-.91c-.17 4.97-4.56 5.45-5.97 5.4l-4.21-.15-.26 7.55c-.01.38-.35.59-1.11.56l-.21-.01c-.76-.02-1.08-.25-1.07-.63l.61-17.65c.02-.57.27-.81.84-.79l5.51.19c2.34.08 6.03.94 5.87 5.53zm-16.07 12.75c-.01.27-.36.46-1.18.45h-.21c-.55-.01-.98-.12-1.08-.45l-1.56-4.47-7.98-.1-1.6 4.44c-.11.33-.55.43-1.09.42h-.14c-.81-.01-1.17-.17-1.16-.47 0-.11.03-.22.08-.38l6.65-17.78c.11-.32.54-.42 1.09-.42l.79.01c.54.01.97.12 1.08.45l6.23 17.95c.05.13.08.24.08.35zm-41.33-10.11l7.09-.2c.38-.01.55.23.56.8l.01.43c.02.58-.14.82-.51.83l-7.09.2.18 6.63 7.93-.22c.38-.01.55.23.57.8l.01.43c.01.57-.14.82-.52.83l-9.51.26c-.57.02-.82-.22-.83-.79l-.49-17.38c-.01-.57.22-.82.79-.83l9.48-.27c.38-.01.55.23.57.8l.01.44c.02.57-.14.82-.52.83l-7.9.22.17 6.19zM147 299.66c.02.38-.3.61-1.06.65l-.21.01c-.76.04-1.1-.17-1.12-.55l-.85-17.9c-.02-.38.3-.62 1.06-.65l.21-.01c.76-.04 1.1.16 1.12.54l.39 8.31.11-.01 6.27-8.84c.23-.31.85-.42 1.45-.45l.27-.01c.65-.03.96.12.96.31.01.13-.06.33-.24.55l-6.38 8.79 8.65 8.54c.19.2.26.31.26.42.01.3-.33.4-1.18.44l-.32.01c-.6.03-1.17.06-1.51-.28l-8.18-8.37-.1.01.4 8.49zm-57.92 5.57l-9.42 1.23c-.57.08-.84-.13-.91-.7l-2.27-17.23c-.07-.57.14-.84.7-.92l9.4-1.23c.38-.05.57.17.65.74l.06.43c.07.56-.06.83-.44.88l-7.83 1.03.8 6.14 7.03-.93c.38-.05.57.18.65.74l.05.43c.08.57-.05.83-.43.88l-7.03.92.86 6.57 7.86-1.03c.38-.05.58.17.65.74l.06.43c.07.56-.06.83-.44.88zm9.05-.88c-3.15.35-5.72-.62-5.8-1.35-.05-.43.48-1.53.78-1.57.35-.04 2.02 1.17 4.8.86 2.05-.22 3.39-1.66 3.17-3.66-.52-4.67-9.06-1.61-9.77-7.96-.33-3 1.82-5.23 5.44-5.64 1.54-.17 4.42.2 4.53 1.17.05.4-.43 1.49-.7 1.52-.41.05-1.52-.86-3.66-.63-2.02.23-3.37 1.36-3.14 3.41.44 3.95 9.01 1.16 9.76 7.86.37 3.32-1.76 5.58-5.41 5.99zm15.61-9.89l-4.19.39.7 7.52c.03.38-.27.62-1.03.69l-.22.02c-.76.07-1.1-.11-1.13-.49L106.23 285c-.05-.57.17-.83.74-.88l5.49-.51c2.33-.22 6.1.17 6.53 4.74.46 4.95-3.84 5.98-5.25 6.11zm16.44-12.44c5.44-.39 8.6 2.66 9.04 9 .45 6.34-2.24 9.91-7.69 10.29-5.42.38-8.58-2.77-9.03-9.12-.44-6.34 2.26-9.79 7.68-10.17zm-7 29.68s61.8-6.76 115.15 0c0 0-58.5-4.18-115.15 0zm129.21-9.6l-.22-.02c-.54-.05-.97-.19-1.05-.52l-1.23-4.58-7.97-.65-1.9 4.32c-.14.31-.58.39-1.12.34l-.14-.01c-.81-.07-1.15-.26-1.12-.56 0-.1.04-.21.11-.37l7.87-17.26c.14-.32.58-.39 1.12-.35l.79.06c.54.05.96.19 1.04.53l4.96 18.34c.05.14.07.25.06.36-.03.27-.39.43-1.2.37zm16.49-4.46l1.53 5.56c.03.16.05.3.04.38-.03.27-.4.4-1.18.31l-.27-.03c-.54-.06-.96-.27-1.04-.55l-1.47-5.52c-.58-2.19-1.63-2.85-3.74-3.08l-2.43-.27-.84 7.78c-.05.38-.4.56-1.15.48l-.22-.03c-.75-.08-1.05-.33-1.01-.71l1.92-17.55c.05-.57.33-.78.89-.72l4.54.49c4.21.46 6.36 2.09 5.99 5.49-.26 2.32-1.63 3.68-3.61 4.23l-.01.1c1.09.51 1.56 1.79 2.06 3.64zm18.37-9.77l-.06.43c-.08.56-.27.78-.65.73l-7.83-1.06-.84 6.13 7.03.96c.37.05.5.32.43.88l-.06.43c-.08.57-.27.79-.65.74l-7.03-.96-.89 6.57 7.86 1.07c.38.05.51.32.43.88l-.06.43c-.08.57-.27.79-.65.73l-9.42-1.28c-.57-.07-.78-.35-.7-.91l2.35-17.24c.07-.56.35-.77.91-.69l9.4 1.28c.38.05.5.31.43.88zm12.52 19.16l-.07.43c-.09.56-.29.78-.67.72l-8.93-1.45c-.56-.09-.76-.37-.67-.93l2.82-17.43c.06-.38.42-.54 1.17-.42l.21.04c.76.12 1.04.39.98.76l-2.62 16.2 7.37 1.19c.38.06.5.33.41.89z" fill="#fff"/><path d="M246.92 284.96l-.57 1.54-3.5 7.83 6.47.54-2.18-8.31-.22-1.6" fill="#fff"/><path d="M267.93 289.83c.24-2.18-1.11-3.31-3.3-3.55l-3.37-.37-.71 6.48 3.56.39c1.95.21 3.63-1.16 3.82-2.95" fill="#fff"/><path d="M209.27 233.47l.12 1.7 1.55-.02-.1-1.47c-.09.02-.18.05-.27.05-.47.03-.91-.07-1.3-.26" fill="#fff"/><path d="M212.93 231.02c-.02-.34-.11-.65-.25-.93-.43-.91-1.39-1.52-2.46-1.44-.62.04-1.16.31-1.58.71-.52.5-.84 1.22-.79 2 .07.94.63 1.72 1.42 2.11l-.04-.55c-.51-.35-.88-.92-.92-1.59-.05-.68.24-1.3.71-1.71.17.09.36.16.56.19l2.09.37c.19.04.38.03.56.01.14.26.23.55.25.86.07 1.04-.64 1.94-1.62 2.17l-.01-.05c-.01.01-.03.01-.05.01l-.17-2.46-1.54.1.14 2.1.06.03.03.46c.39.19.83.3 1.3.26.07 0 .14-.02.21-.03l.01.04c1.26-.22 2.18-1.35 2.09-2.66" fill="#fff"/><path d="M112.57 86.79l-1.2 1.2s.43-.38 1.2-1.08v-.12" fill="#000"/><path d="M116.65 105.95c.01-.06.02-.12.02-.18-1.81-.84-2.84-1.31-2.84-1.31l2.82 1.49" fill="#000"/><path d="M194.76 144.41s-.94-.49-2.59-1.37c.32.21.65.43.98.64 1.03.47 1.61.73 1.61.73" fill="#000"/><path d="M114.47 85.19c1.96-1.81 4.79-4.35 8.12-7.46 3.34-3.11 7.26-6.71 11.4-10.62 4.14-3.92 8.56-8.1 12.98-12.27 4.38-4.22 8.77-8.43 12.88-12.38 4.11-3.95 7.89-7.69 11.16-10.87 3.27-3.19 5.94-5.89 7.84-7.76 1.87-1.88 2.95-2.96 2.95-2.96s-1.13 1.02-3.11 2.8c-1.95 1.81-4.78 4.35-8.12 7.46-3.33 3.11-7.25 6.7-11.39 10.62-4.15 3.92-8.57 8.1-12.98 12.27L133.32 66.4c-4.11 3.95-7.89 7.7-11.16 10.88-3.27 3.18-5.94 5.88-7.84 7.75-.7.7-1.29 1.3-1.75 1.76v.12c.5-.45 1.13-1.03 1.9-1.72" fill="#fff"/><path d="M117.26 106.28c2.19 1.13 5.3 2.79 9.08 4.71 3.77 1.91 8.15 4.19 12.88 6.55 4.73 2.36 9.78 4.88 14.82 7.4 5.07 2.48 10.14 4.95 14.89 7.27 4.76 2.33 9.23 4.41 13.04 6.25 3.82 1.82 7.03 3.28 9.26 4.33.76.35 1.39.64 1.92.89-.33-.21-.66-.43-.98-.64-.27-.14-.54-.28-.84-.44-2.19-1.13-5.31-2.79-9.08-4.71-3.77-1.92-8.15-4.2-12.88-6.55-4.73-2.37-9.78-4.89-14.83-7.4-5.07-2.48-10.14-4.95-14.89-7.27-4.75-2.32-9.22-4.42-13.03-6.25-3.82-1.82-7.03-3.29-9.27-4.34l-.68-.31c0 .06-.01.12-.02.18.2.11.4.21.61.33" fill="#fff"/><path d="M112.14 80.56l-1.27.09.5 7.34 1.2-1.2-.43-6.23" fill="#fff"/><path d="M239.64 155.36c42.7-2.92 74.95-39.91 72.03-82.61-2.92-42.7-39.91-74.95-82.61-72.03-42.7 2.92-74.95 39.91-72.03 82.61 1.73 25.28 15.41 46.89 35.14 59.71 1.65.88 2.59 1.37 2.59 1.37s-.58-.26-1.61-.73c2.21 1.39 4.49 2.67 6.85 3.84-1.73 5.19-2.74 9.96-2.94 13.58-1.43.31-2.56 1.11-3.03 2.31-.42 1.07-.23 2.26.4 3.35-1.02.39-1.8 1.08-2.17 2.02-.4 1.02-.23 2.16.37 3.21l-72.45-13.64-.17-1.65s4.11-1.37-.21-3.17l3.01-4.04s.79-3.06-.92-6.68c-1.71-3.62-.22-4.55-.22-4.55s.6-1.95-.36-2.71c-.34-.26-.53-.55-.64-.83 3.69-1.74 6.12-5.61 5.83-9.92-.14-1.95-.82-3.74-1.88-5.22.02-.25.02-.5.01-.76-.18-2.63-2.12-4.72-4.59-5.22-.01-.1 0-.2-.01-.3-.16-2.41-1.67-4.41-3.74-5.32.16-.61.28-1.3.36-2.03l-2.82-1.49s1.03.47 2.84 1.31c.11-1.05.15-2.18.06-3.37-.18-2.74-.88-5.15-1.82-6.71l-.4-5.81c-.07-1-.86-1.79-1.87-1.97l-.07-1c-.77.7-1.2 1.08-1.2 1.08-.97.33-1.65 1.22-1.58 2.22l.4 5.8c-.72 1.68-1.08 4.16-.9 6.9.15 2.09.59 3.99 1.21 5.47-1.93 1.18-3.16 3.37-2.99 5.78.1 1.56.77 2.94 1.79 3.97-2.11 2.02-3.35 4.92-3.13 8.06.33 4.94 4.14 8.82 8.87 9.41l.01.1c-.25.78-.37 1.85-.29 3.01.1 1.51.51 2.81 1.03 3.52l.05.71c-.67.49-1.08 1.46-1.01 2.56.07.93.47 1.73 1.04 2.18l.41 6.03c-.62.34-1.02.89-.98 1.49.04.6.51 1.09 1.17 1.34l.08 1.13-15.05-2.83-3.31 8.49v1.79l162.22 31.03.01-.03 1.57-3.75 1.09-7.13-41.79-7.86c.4-2.54 1-6.32 1.15-6.55.21-.35 1.87-.89 2.01-1.71.1-.64-.7-1.3-.79-1.84-.1-.55.51-2 .7-3.09.43-2.57.48-4.96.22-6.75l.41-2.46c4.78.58 9.67.72 14.65.38zM119.3 143.53l-.62.58c-.24-.58-.62-1.04-1.08-1.29l-.05-.71c.42-.77.64-2.11.54-3.62-.08-1.12-.32-2.13-.65-2.86.31-.04.61-.09.92-.15.03.95.15 2.66.51 3.16.5.69.43 4.89.43 4.89zm103.51-2.56l-.38 2.22c-.03 0-.05-.01-.08-.01.32-3.68.36-6.9.15-9.13l1.57-12.86c.55-1.34 1.02-3.21 1.28-5.31.11-.9.02-2.16.19-2.57.18-.4.84-.74.9-1.27.02-.15-.01-.3-.08-.46-.07-.56-.6-1.29-.84-1.74.03-.35.09-.88.17-1.5.13-.3.31-.55.49-.67.31-.21 1.12-.33 1.69-.6.04 1.57.21 2.97.12 3.53-.15.89-3.06 8.72-4.12 15.01-1.05 6.18-1.39 11.78-1.06 15.36zm-4.84-12.31s1.13-3.53 1.47-3.77c.18-.13.69-.21 1.15-.34l-1.12 9.13c-.71 2.01-1.41 4.97-1.99 8.42-.54-.15-1.08-.3-1.62-.46 1.52-5.18 2.25-9.77 2.11-12.98zm2.59-6.62c-.08-.28.17-1 .45-1.56.01.12.03.23.04.34l-.21 1.72c-.13-.2-.25-.38-.28-.5zm.08-20.28c-.45.36-1.58.47-1.82 1.06-.26.68.78 1.88.92 2.33.13.45-.46 1.81-.76 1.94-.3.13-1.99.41-2.25 1.1-.27.68.79 2.01.91 2.33.12.31-.47 1.84-.82 2.08-.34.24-1.83.95-2.19 1.86-.36.92.28 2.49.35 2.86.07.37-.54 2.01-.86 2.2-.32.19-1.78.3-2 .86-.22.56.75 1.63.88 1.99.14.36-1.47 3.77-1.47 3.77-2.27 2.25-4.84 6.1-7.23 10.92-4.47-2.28-8.66-5.06-12.49-8.27.21-.07.41-.19.57-.37.46-.51.75-.94.03-1.77l6.33-7.03s-.21-.29-.23-.58c-.02-.29.82-1.23 1.05-1.14.23.09 1.51.45 1.89.03.38-.42-.27-1.64-.29-1.93-.01-.29 1.86-2.19 1.86-2.19.58.13 1.08-.15 1.5-.62l10.58-11.76c.18-.2.41-.34.47-.58.46.13.97.17 1.19-.07.29-.33.19-.92-.16-1.51 0 0 2.45-3.15 2.73-3.16.29-.01.55.01.55.01l5.28-5.87c-1.02 2.77-4.14 11.21-4.52 11.51zm-6.81-44.16c-.25-.21-.68-.17-1.12 0-.09-.23-.31-.37-.51-.55l-11.98-10.34c-.47-.41-1.05-.58-1.6-.38 0 0-2.09-1.63-2.11-1.96-.02-.32.41-1.51-.02-1.87-.42-.37-1.57.08-1.85.24-.27.16-1.14-.76-1.15-1.03-.02-.28.13-.7.13-.7l-7.11-6.13c.38-.64.23-1.26-.28-1.71-.12-.09-.25-.16-.38-.21 4.53-4.88 9.79-9.08 15.63-12.42.02.16.06.32.15.48.31.6.62 1.03 1.64.63l4.41 8.38s.34-.09.62-.01c.27.08.87 1.19.7 1.38-.16.18-.94 1.26-.68 1.76.26.5 1.63.32 1.91.4.28.09 1.4 2.5 1.4 2.5-.32.5-.22 1.07.07 1.63l7.36 13.99c.13.24.18.5.38.65-.28.39-.5.84-.34 1.14.2.38.8.49 1.47.37 0 0 2.1 3.39 2.01 3.66-.08.28-.2.5-.2.5l7.36 14.01c-.04.03-.08.05-.12.08L217.6 61.72s-.3.11-.58.13c-.29.03-3.11-2.8-3.11-2.8.26-.62.24-1.17-.08-1.45zm13.98 46.96c-.02-.14.2-.83.56-1.81-.14.51-.26 1.03-.34 1.54-.04.22-.07.44-.09.66-.06-.13-.1-.26-.13-.39zm-.58 37.16c1.49-3.28 3.01-8.67 4.05-14.86 1.07-6.28.87-14.47 1.05-15.53.18-1.05 1.63-3.54 2.03-5.97.23-1.31.27-2.76.22-4.03.1.05.27.15.41.27.22.19.2 4.18.2 4.18-.63.25-1.01.65-.98 1.07.03.33.35.61.79.8-.1.23-.05.48-.03.75l1.08 15.78c.04.63.32 1.16.85 1.42 0 0 .31 2.62.09 2.87-.21.24-1.35.77-1.32 1.33.04.56 1.17 1.06 1.48 1.14.31.08.26 1.34.08 1.55-.18.21-.59.39-.59.39l.64 9.37c-.71.18-1.05.72-1 1.4.01.21.08.4.18.57-3.24.11-6.45-.02-9.59-.37l.36-2.13zm2.88-43.41c.33-.8.66-1.61.97-2.36-.17.85-.32 1.42-.43 1.53-.13.14-.32.43-.54.83zm4.07-1.48l.13 1.88c-.07-.29-.13-.52-.19-.65-.05-.11-.03-.56.06-1.23zm3.69 11.38c-.02-.27.04-.53-.08-.75.4-.24.79-.57.77-.9-.03-.43-.53-.78-1.2-.94 0 0-.55-3.94-.36-4.16.19-.22.38-.38.38-.38l-1.05-15.39c.08-.02.16-.05.23-.07l7.05 13.75s.25.04.53.13c.27.08 1.83 3.75 1.83 3.75-.49.48-.74 1.03-.54 1.42.15.29.65.38 1.12.38.01.25.19.44.31.68l7.21 14.08c.29.55.7.96 1.29.98 0 0 1.33 2.31 1.24 2.59-.1.28-1.03 1.29-.77 1.79.25.5 1.58.49 1.83.46.24-.03.81 1.1.72 1.37-.09.27-.37.5-.37.5l4.32 8.43c-.91.61-.74 1.1-.43 1.71.1.19.23.34.39.45-6.46 3.01-13.5 5.01-20.95 5.8.07-.18.11-.38.1-.59-.05-.68-.16-1.19-1.25-1.25l-.65-9.43s-.35-.06-.57-.25c-.22-.19-.32-1.44-.09-1.54.22-.1 1.37-.78 1.33-1.34-.03-.56-1.36-.95-1.58-1.14-.22-.19-.27-2.85-.27-2.85.49-.33.63-.89.59-1.51l-1.08-15.78zm4.95-51.74c-.13-.26 1.37-3.95 1.37-3.95.69.01 1.25-.2 1.39-.61.1-.32-.19-.73-.53-1.07.18-.18.18-.44.26-.7l4.9-15.04c.2-.59.19-1.17-.21-1.61 0 0 .71-2.57.97-2.7.26-.13 1.64-.18 1.81-.72.18-.53-.77-1.47-.97-1.62-.19-.15.21-1.35.47-1.48.26-.13.61-.09.61-.09l2.93-9c1.08.21 1.31-.25 1.52-.9.12-.4.06-.79-.13-1.11 7.42 2.74 14.24 6.77 20.17 11.84-.35 0-.7.14-.95.42-.46.5-.53 1.13-.08 1.72l-6.33 6.94s.2.4.22.68c.01.27-.74 1.29-1.03 1.16-.3-.13-1.49-.44-1.87-.03-.37.42.19 1.54.21 1.87.02.33-1.86 2.19-1.86 2.19-.57-.13-1.12.11-1.54.58l-10.66 11.69c-.18.2-.38.36-.45.61-.45-.12-.88-.11-1.1.13-.29.32-.24.87.09 1.45 0 0-2.46 3.14-2.75 3.15-.29.01-.6-.06-.6-.06l-10.33 11.34 4.75-14.62s-.15-.2-.28-.46zm23.82 79.4c0-.2-.04-.4-.14-.59-.31-.61-.88-.9-1.58-.68l-4.28-8.36s-.45.05-.71-.03c-.26-.09-.95-1.14-.73-1.37.23-.23.93-1.24.68-1.74-.26-.5-1.51-.37-1.82-.46-.31-.1-1.4-2.51-1.4-2.51.32-.5.29-1.09 0-1.65l-7.21-14.08c-.12-.24-.21-.48-.41-.64.27-.38.41-.78.26-1.08-.2-.38-.72-.53-1.39-.42 0 0-2.07-3.41-1.98-3.68.09-.28.27-.54.27-.54l-7-13.66 11.54 10.13s.25-.06.54-.08c.28-.02 3.08 2.81 3.08 2.81-.27.63-.3 1.24.02 1.52.25.22.75.12 1.19-.06.09.23.34.34.54.52L268 109.65c.47.42 1 .64 1.56.44 0 0 2.08 1.66 2.1 1.95.02.3-.48 1.58-.06 1.95.43.37 1.66-.13 1.88-.24.22-.12 1.16.71 1.17 1 .02.29-.15.6-.15.6l7.11 6.25c-.62.9-.28 1.3.23 1.74.16.14.35.24.54.29-4.58 4.82-9.87 8.96-15.74 12.24zm9.83-22.66s-.39.21-.67.23c-.28.02-1.3-.71-1.18-1 .12-.3.41-1.5-.01-1.87-.42-.37-1.54.22-1.86.24-.33.03-2.23-1.81-2.23-1.81.12-.58-.13-1.13-.61-1.54l-11.88-10.43c-.21-.18-.38-.37-.62-.44.11-.46.09-.88-.16-1.1-.32-.28-.86-.23-1.44.12 0 0-3.19-2.41-3.2-2.69-.02-.29.05-.6.05-.6L241.02 82.1c.01-.01.01-.03.03-.04l14.9 4.96s.21-.15.46-.28c.26-.13 3.94 1.4 3.94 1.4-.01.68.2 1.25.61 1.39.31.11.73-.19 1.07-.52.17.18.44.18.7.27l15 5c.6.2 1.17.2 1.61-.2 0 0 2.57.72 2.69.99.13.26.18 1.64.71 1.81.53.18 1.47-.76 1.63-.95.16-.2 1.34.21 1.48.47.12.26.09.62.09.62l8.97 2.99c-.22 1.07.25 1.3.89 1.52.16.05.3.06.45.06-2.55 6.7-6.16 12.9-10.65 18.38-.07-.19-.18-.37-.35-.51-.51-.45-1.14-.51-1.72-.05l-7.06-6.2zm21.39-16.35c-.12-.1-.26-.19-.42-.24-.64-.21-1.25-.02-1.61.62l-8.91-2.96s-.28.34-.53.47c-.24.12-1.47-.15-1.47-.47-.01-.32-.21-1.54-.74-1.71-.53-.18-1.33.79-1.62.94-.29.15-2.76-.81-2.76-.81-.11-.58-.56-.98-1.15-1.18l-15.01-5c-.25-.09-.49-.2-.74-.16-.07-.47-.25-.86-.57-.96-.4-.13-.88.13-1.28.67 0 0-3.87-.98-4-1.24-.13-.26-.18-.57-.18-.57l-14.88-4.96c.01-.07.01-.15.02-.22l15.43-.78s.13-.21.33-.42c.19-.22 4.17-.13 4.17-.13.24.64.64 1.1 1.07 1.07.34-.01.62-.43.81-.87.23.1.48.01.75 0l15.8-.79c.62-.03 1.16-.24 1.43-.77 0 0 2.65-.26 2.86-.06.22.2.76 1.46 1.32 1.44.56-.03 1.1-1.25 1.17-1.48.08-.24 1.33-.3 1.55-.1.21.2.31.54.31.54l9.44-.47c.19 1.08.71 1.13 1.39 1.09.28-.01.52-.11.72-.25.11 6.84-.84 13.49-2.7 19.76zm-15.32-40.87c-.03-.24 1.11-.78 1.38-.69.27.1.5.38.5.38l8.51-4.12c.59.92 1.09.76 1.7.46.2-.09.35-.22.47-.37 2.79 6.42 4.6 13.39 5.23 20.74-.22-.14-.47-.22-.75-.2-.68.03-1.18.43-1.27 1.16l-9.38.47s-.14.43-.32.63c-.18.21-1.43.4-1.55.1-.12-.3-.75-1.36-1.31-1.33-.55.03-.95 1.23-1.17 1.47-.21.24-2.85.24-2.85.24-.32-.49-.88-.71-1.51-.67l-15.8.78c-.27.02-.53-.01-.75.12-.23-.41-.54-.7-.88-.68-.42.02-.77.44-.95 1.09 0 0-3.96.49-4.17.29-.22-.19-.38-.46-.38-.46l-15.19.76 13.86-6.71s.05-.25.14-.53c.09-.27 3.8-1.74 3.8-1.74.47.49 1.01.76 1.4.57.3-.14.4-.64.41-1.12.25 0 .44-.18.68-.29l14.24-6.89c.56-.27.98-.68 1.02-1.27 0 0 2.34-1.27 2.61-1.18.28.1 1.27 1.06 1.78.81.5-.24.52-1.57.5-1.82zm9.84-8.62c-.61.3-.92.86-.71 1.57l-8.46 4.09s.04.44-.05.71c-.09.26-1.16.92-1.39.69-.22-.23-1.21-.96-1.72-.71-.5.24-.4 1.5-.5 1.81-.1.3-2.54 1.34-2.54 1.34-.49-.34-1.08-.32-1.65-.04l-14.23 6.89c-.25.11-.49.2-.65.4-.38-.28-.78-.43-1.08-.29-.38.19-.54.71-.45 1.38 0 0-3.45 2-3.73 1.9-.27-.1-.52-.28-.52-.28l-14.13 6.83c-.03-.04-.06-.08-.09-.13l10.35-11.36s-.05-.25-.06-.54c-.02-.29 2.87-3.04 2.87-3.04.62.29 1.22.33 1.52.02.22-.25.12-.75-.05-1.19.24-.09.35-.34.53-.53L266.3 45.2c.42-.47.65-.99.47-1.56 0 0 1.7-2.05 1.99-2.06.29-.01 1.57.51 1.95.09.38-.42-.1-1.66-.21-1.88-.12-.22.73-1.14 1.02-1.15.29-.01.6.16.6.16l6.38-6.99c.89.64 1.29.3 1.75-.2.25-.28.36-.62.35-.96 4.94 4.82 9.14 10.41 12.39 16.6-.2-.01-.41.02-.61.12zm-39.14-32.81c-.37.13-.69.41-.82.82-.21.64-.02 1.25.64 1.6l-2.91 8.93s.34.28.47.52c.13.25-.14 1.48-.46 1.49-.32 0-1.53.21-1.71.74-.17.54.81 1.33.96 1.62.15.29-.79 2.76-.79 2.76-.58.12-.98.56-1.17 1.16l-4.9 15.04c-.09.26-.2.49-.16.74-.46.08-.85.27-.95.58-.13.41.13.89.68 1.28 0 0-.95 3.88-1.21 4.01-.26.12-.57.18-.57.18l-4.75 14.57c-.1-.02-.19-.04-.29-.05l-1.06-15.39s-.21-.13-.43-.32-.21-4.18-.21-4.18c.64-.25 1.09-.65 1.06-1.08-.02-.34-.45-.61-.89-.8.1-.23 0-.48-.01-.74l-1.08-15.78c-.05-.63-.27-1.16-.8-1.42 0 0-.31-2.65-.11-2.86.19-.22 1.45-.79 1.41-1.35-.04-.56-1.27-1.07-1.5-1.14-.24-.07-.32-1.33-.13-1.54.19-.22.54-.32.54-.32l-.65-9.44c1.08-.21 1.11-.73 1.07-1.41-.03-.38-.2-.7-.46-.92 7.35-.26 14.48.7 21.19 2.7zm-23.43 9.5c.21.18.43 1.43.13 1.55-.29.12-1.34.77-1.3 1.33.04.56 1.24.93 1.49 1.14.25.21.3 2.86.3 2.86-.5.33-.7.89-.66 1.52l1.08 15.77c.02.27 0 .53.13.75-.4.24-.69.56-.66.89.03.43.45.77 1.11.94 0 0 .56 3.95.37 4.17-.19.21-.46.38-.46.38l1.05 15.38c-.01.01-.03.01-.05.01l.03-.01-7.41-14.09s-.32 0-.59-.08c-.28-.09-1.87-3.75-1.87-3.75.47-.48.65-1 .45-1.38-.15-.29-.56-.41-1.03-.4-.01-.26-.16-.47-.28-.71l-7.37-14c-.29-.56-.75-.93-1.35-.95 0 0-1.34-2.28-1.24-2.59.1-.3.93-1.25.67-1.75-.26-.49-1.5-.5-1.81-.45-.32.05-.79-1.12-.7-1.38.08-.26.38-.6.38-.6l-4.37-8.31c.58-.45.67-1.09.35-1.69-.08-.15-.19-.28-.31-.38 6.7-3.19 14.04-5.3 21.82-6.08-.24.26-.39.6-.36.99.05.67.45 1.17 1.19 1.25l.64 9.36s.43.13.63.31zm-38.04 19.2s.29-.21.58-.23c.29-.03 1.24.79 1.16 1.02-.09.23-.42 1.52.01 1.89.43.37 1.63-.3 1.92-.32.29-.03 2.22 1.81 2.22 1.81-.11.58.18 1.07.66 1.49l11.97 10.33c.2.17.35.4.59.46-.11.46-.15.97.1 1.19.33.28.92.17 1.51-.19 0 0 3.19 2.38 3.21 2.67.02.28 0 .54 0 .54l11.63 10.05-14.75-4.7s-.23.22-.49.36c-.25.13-3.96-1.35-3.96-1.35 0-.68-.23-1.17-.64-1.3-.32-.1-.69.1-1.02.43-.19-.17-.44-.22-.7-.3l-15.07-4.79c-.6-.19-1.2-.13-1.63.27 0 0-2.56-.68-2.7-.97-.15-.29-.23-1.55-.76-1.71-.53-.17-1.41.69-1.6.95-.19.26-1.35-.25-1.48-.49-.12-.25-.14-.7-.14-.7l-8.95-2.84c.09-.73-.29-1.25-.93-1.45-.13-.04-.26-.06-.38-.06 2.47-6.75 6.02-13.01 10.44-18.56.07.12.16.23.28.33.51.44.95.73 1.76-.01l7.16 6.18zm-5 57.26c.04.32-1.14.75-1.4.66-.26-.09-.59-.39-.59-.39l-8.43 4.14c-.44-.59-1.06-.7-1.67-.4-.35.17-.58.47-.67.82-2.93-6.47-4.86-13.51-5.57-20.94.13.03.28.05.43.04.68-.03 1.19-.14 1.26-1.23l9.44-.57s.06-.35.25-.57c.19-.22 1.44-.3 1.54-.08.1.23.77 1.38 1.33 1.35.56-.04.96-1.36 1.15-1.58.19-.22 2.86-.25 2.86-.25.32.5.88.65 1.51.61l15.78-.95c.27-.02.53.04.75-.08.24.41.56.8.9.78.43-.03.77-.52.94-1.19 0 0 3.95-.52 4.17-.33.21.2.37.39.37.39l15.65-.94.06.28-13.63 6.71s-.01.31-.1.59c-.09.27-3.79 1.77-3.79 1.77-.47-.49-.98-.68-1.37-.5-.29.15-.43.56-.43 1.03-.26 0-.47.14-.72.26l-14.19 6.99c-.56.27-.94.73-.98 1.32 0 0-2.31 1.28-2.62 1.18-.31-.11-1.23-.97-1.74-.72-.5.25-.53 1.48-.49 1.8zm-16.19-40.39c.11.07.23.13.36.18.64.2 1.16.29 1.61-.71l9.02 2.87s.18-.31.44-.44c.25-.14 1.46.23 1.47.48.01.25.22 1.56.75 1.73.54.17 1.38-.92 1.64-1.05.26-.14 2.76.79 2.76.79.12.58.59.92 1.18 1.11l15.08 4.79c.25.08.47.23.72.19.08.47.24.95.56 1.05.41.14.91-.2 1.31-.76 0 0 3.87.93 4 1.19.14.25.21.5.21.5l15.04 4.78c0 .02-.01.05-.01.07l-15.77.95s-.14.28-.33.5c-.18.22-4.18.17-4.18.17-.24-.63-.64-1.01-1.06-.99-.33.02-.61.35-.8.78-.24-.1-.49-.05-.76-.03l-15.79.94c-.63.04-1.16.32-1.42.85 0 0-2.63.28-2.87.07-.24-.22-.76-1.37-1.32-1.34-.56.04-1.07 1.16-1.16 1.47-.08.31-1.34.26-1.55.07-.2-.18-.38-.59-.38-.59l-9.38.56c-.17-.72-.71-1.06-1.39-1.02-.15.01-.29.05-.42.11-.14-6.67.72-13.14 2.44-19.27zm6.38 49.04c.61-.3 1.04-.59.68-1.62l8.49-4.18s-.08-.35.01-.62c.09-.28 1.21-.84 1.39-.67.18.17 1.24.97 1.74.72.51-.25.37-1.62.46-1.89.09-.28 2.53-1.34 2.53-1.34.49.33 1.07.25 1.63-.02l14.19-6.99c.24-.12.5-.16.65-.36.38.29.84.52 1.14.37.38-.19.51-.78.4-1.46 0 0 3.45-2.01 3.72-1.92.27.1.49.22.49.22l13.5-6.64-10.27 11.41s.11.29.13.58c.02.29-2.86 3.05-2.86 3.05-.62-.27-1.17-.26-1.45.05-.23.25-.2.68-.03 1.12-.24.09-.38.3-.56.51l-10.58 11.75c-.42.47-.61 1.04-.42 1.6 0 0-1.67 2.05-2 2.06-.32.02-1.5-.43-1.87-.02-.38.42.04 1.58.2 1.86s-.78 1.12-1.05 1.14c-.28.01-.7-.15-.7-.15l-6.28 6.98c-.62-.39-1.25-.26-1.7.25-.16.18-.26.39-.3.61-4.89-4.75-9.07-10.25-12.32-16.33.33.11.7.1 1.04-.07zm39.5 49.35c-.09.72-1.06 2.95-1.3 4.93-.3 2.42.03 5.32.27 5.89.13.31-.3 3.71-.73 6.8l-11.97-2.25c.2-.25.37-.53.49-.83.36-.94.25-1.98-.23-2.95 1.2-.38 2.14-1.13 2.56-2.19.47-1.2.18-2.56-.66-3.76 2.3-2.79 4.79-6.95 7.03-11.92 1.51.45 3.03.87 4.58 1.24-.04 2.6 0 4.66-.04 5.04zm.58 16.24c.24-2.13.49-4.11.67-4.84.02.04.05.09.06.12.06.21-.33 2.52-.73 4.72zm3.11-18.06c-.16.3-.31.63-.46.98.2-.83.5-2.01.82-3.37.02 0 .03.01.04.01l-.4 2.38z" fill="#fff"/><path d="M260.19 197.22L98.2 166.23v.75l-1.11 3.36 24.08 4.54c-.03.15-.07.3-.1.46l-.01-.01c-.44 1.85-1.16 3.67-1.16 3.67-1.07.2-1.82.65-1.95 1.3-.13.61.29 1.27 1.08 1.85-1.24-.07-2.38.78-2.65 2.03-.27 1.32 1.26 2.5 1.81 2.99.54.49-.64 5.95-1.55 7.26-.9 1.3-3.43 7.76-4.86 14.55-1.76 8.4-1.8 17.01-1.64 20.25.17 3.24-1.54 6.54-1.54 6.54-.37.72-.69 1.55-.95 2.46-1.08.15-1.83.55-1.96 1.16-.13.61.43 1.31 1.42 1.89-.14 1.78.75 3.47.57 4.33-.18.86-1.29 1.88-1.7 3.28-1.21.22-2.09.82-2.27 1.67-.18.86 1.22 1.76 1.45 2.46.23.71-.48 2.26-.48 2.26-.75.81-1.25 2.5-1.64 3.36-.38.86-1.2 2.63-1.37 3.45l-.34 1.61c-.42 1.98.84 3.92 2.82 4.33l.72.15c1.98.42 3.92-.85 4.33-2.83l.34-1.6c.17-.83.11-4.1.13-3.72.02.39.21-2.69-.15-3.73 0 0-.07-1.76.47-2.26.55-.5 2.14-.82 2.32-1.68.18-.84-.39-1.75-1.4-2.43.18-1.45-.43-2.84-.25-3.69.18-.86 1.68-2.05 2.28-3.73 1.13-.14 1.93-.55 2.06-1.17.12-.6-.4-1.27-1.33-1.85.13-.93.17-1.82.12-2.63 0 0 .3-3.54 1.54-6.54 1.25-3 4.89-10.8 6.65-19.2 1.43-6.79 1.59-13.62 1.46-15.26-.12-1.64.63-6.75 1.55-7.26.91-.51 2.57-.69 2.85-2.01.26-1.26-.44-2.49-1.6-2.92.95-.22 1.6-.66 1.73-1.26.14-.65-.36-1.37-1.26-1.98 0 0 .11-1.97.42-3.79.04-.21.07-.42.11-.62l87.43 16.48c-.01.1-.03.2-.05.3l.05.01-.11-.02c-.67 4.29-1.4 6.58-1.4 6.58-.38.62-.73 1.35-1.04 2.17-1.01.26-1.7.75-1.81 1.41-.1.56.26 1.13.92 1.63-.07.31-.12.62-.18.94-.41 2.46.12 1.95.5 3.65l-.8 4.77c-.55 1.47-1.03 3.25-1.36 5.2-.47 2.84-.53 5.45-.23 7.31-.63.23-1.12.77-1.24 1.46-.11.67.16 1.3.66 1.71.41-.39.95-.66 1.57-.72 1.07-.09 2.03.47 2.48 1.34.62-.23 1.1-.76 1.21-1.44.12-.69-.17-1.35-.7-1.75.9-1.68 1.7-4.18 2.17-7.02.33-1.94.46-3.78.41-5.35l.8-4.76c.92-1.51 1.19-.87 1.6-3.34.06-.31.1-.63.14-.94.79-.28 1.32-.72 1.41-1.28.11-.66-.39-1.33-1.26-1.88-.03-.86-.13-1.66-.28-2.36 0 0-.04-2.32.69-6.52l.07.01c.01-.1.03-.21.05-.31l11.48 2.17c.07.17.13.35.19.54l.12.02c.42 1.56.62 3.21.62 3.21-.72.59-1.09 1.23-.93 1.77.15.51.73.83 1.56.95-.96.45-1.46 1.54-1.15 2.59.33 1.1 1.95 1.36 2.56 1.5.61.14 1.94 4.72 1.8 6.06-.15 1.35.58 7.21 2.28 12.86 2.09 7.01 5.56 13.47 7 15.83 1.44 2.35 1.51 5.52 1.51 5.52.01.68.11 1.44.29 2.22-.75.55-1.15 1.16-1 1.66.16.52.86.81 1.83.85.62 1.38 1.98 2.28 2.2 3 .21.72-.21 1.93.05 3.15-.81.65-1.23 1.46-1.02 2.17.22.71 1.63.82 2.09 1.25.46.44.56 1.89.56 1.89-.23.91.08 2.38.14 3.18.06.8.16 2.45.37 3.14l.4 1.34c.49 1.65 2.23 2.59 3.88 2.09l.6-.18c1.64-.49 2.58-2.23 2.09-3.87l-.41-1.35c-.01-.05-.04-.12-.07-.2l.48-.15c1.53-.51 2.4-2.14 1.93-3.64l-.39-1.23c-.19-.62-1.49-2.81-1.33-2.56.16.26-.89-1.9-1.54-2.46 0 0-.72-1.16-.54-1.72.19-.55 1.18-1.4.97-2.05-.2-.65-.94-1.03-1.91-1.09-.42-1.05-1.38-1.75-1.58-2.39-.21-.66.38-2.06.15-3.43.74-.55 1.13-1.14.98-1.61-.14-.46-.76-.71-1.63-.72-.27-.68-.58-1.3-.93-1.83 0 0-1.14-2.51-1.43-5.03-.29-2.52-.74-9.25-2.74-15.63-1.61-5.16-4.12-9.83-4.84-10.89-.72-1.06-2.16-4.82-1.71-5.53.44-.71 1.53-1.49 1.21-2.49-.29-.96-1.26-1.5-2.23-1.34.58-.53.86-1.08.72-1.54-.16-.49-.78-.78-1.64-.83 0 0-.2-.4-.45-.97l1.78.31c-.27-.12-.62-.19-1.04-.22 0 0-.06-.12-.15-.32l19.29 3.63.78-3.71zm-8.44 55.39c.02.14.04.28.07.42-.03.02-.05.05-.07.07-.02-.15-.02-.3 0-.49z" fill="#fff"/><path d="M235.2 252.97c-2.47-1.07-6.85-1.95-11.87-2.24-.2-.02-.4-.03-.59-.04-.63-.71-1.53-1.18-2.56-1.24l-1.66-.1c-1.29-.08-2.46.52-3.18 1.48-.94.09-1.8.21-2.57.36l-8.16-.48c-.46-.1-.95-.19-1.46-.29l-1.03 1.05c-5.82-.36-12.91-.55-20.57-.49-5.63.04-10.95.22-15.69.48l-.08-.84-.04-.33s1.34-1.34 3.04-3.03c-.95-.05-1.53-.09-1.53-.09-5.17-.02-9.63.14-13 .45l-7.05-.41c-1.06-.34-2.32-.65-3.72-.91-.62-.94-1.66-1.59-2.87-1.66l-1.66-.1c-1.03-.06-1.98.3-2.69.94-4.81-.25-9.05.11-11.55.86l-11.62-.69-.22 3.63 11.62.68c2.39 1.04 6.56 1.89 11.37 2.22.62.71 1.53 1.18 2.55 1.24l1.66.1c1.21.07 2.32-.45 3.05-1.31 1.42-.1 2.71-.26 3.8-.47l7.06.42c6.39 1.36 16.89 2.63 28.81 3.33 11.92.7 15.04.36 21.55-.25l8.15.49c.75.23 1.59.46 2.52.66.59 1.04 1.68 1.76 2.98 1.84l1.65.1c1.03.06 1.98-.3 2.69-.94.19.01.39.03.59.04 5.02.3 9.47-.06 12.06-.84l10.89.65.22-3.63-10.89-.64" fill="#fff"/><path d="M214.13 234.81l-3.09.04v.09l-1.49.1-.01-.17-8.67.1-4.54 4.81s-18.5-.15-19.11-.02c-.61.12-9.69 9.67-9.69 9.67l.04.33.08.84c4.52-.25 9.6-.41 14.97-.43 7.31-.04 14.07.17 19.62.55l12.48-13.25.2-.21c.64-2.29-.79-2.45-.79-2.45" fill="#fff"/><path d="M140.92 328.84c0-.43.18-.61.62-.61h7.2c.29 0 .41.18.41.61v.33c0 .44-.12.62-.41.62h-6.01v4.71h5.39c.29 0 .41.18.41.62v.33c0 .43-.12.62-.41.62h-5.39v5.03h6.03c.29 0 .41.18.41.62v.33c0 .43-.12.62-.41.62h-7.22c-.44 0-.62-.19-.62-.62v-13.21" fill="#fff"/><path d="M151.66 340.17c.27 0 1.43 1.05 3.55 1.05 1.57 0 2.71-.97 2.71-2.49 0-3.57-6.71-1.98-6.71-6.83 0-2.29 1.82-3.8 4.58-3.8 1.18 0 3.32.52 3.32 1.26 0 .31-.45 1.09-.66 1.09-.31 0-1.07-.78-2.7-.78-1.55 0-2.66.74-2.66 2.31 0 3.01 6.7 1.63 6.7 6.75 0 2.53-1.79 4.06-4.58 4.06-2.41 0-4.27-.95-4.27-1.51 0-.33.5-1.11.72-1.11" fill="#fff"/><path d="M165.28 329.79h-3.96c-.29 0-.41-.18-.41-.62v-.33c0-.43.12-.61.41-.61h9.67c.29 0 .42.18.42.61v.33c0 .44-.13.62-.42.62h-3.9v12.46c0 .29-.24.46-.82.46h-.17c-.57 0-.82-.17-.82-.46v-12.46" fill="#fff"/><path d="M172.87 340.89c0-.29.25-.45.82-.45h.35c.58 0 .83.16.83.45v1.36c0 .29-.25.46-.83.46h-.35c-.57 0-.82-.17-.82-.46v-1.36" fill="#fff"/><path d="M181.74 341.8c0-.43.12-.62.41-.62h3.59v-11.12l-3.65.62c-.29 0-.41-.68-.41-1.05 0-.23.12-.33.37-.39l4.78-1.06c.31 0 .64.19.64.44v12.56h3.06c.29 0 .41.19.41.62v.25c0 .43-.12.62-.41.62h-8.38c-.29 0-.41-.19-.41-.62v-.25" fill="#fff"/><path d="M194.65 341.39c2.81-1.16 4.44-3.18 5.1-5.49-.64.37-1.53.68-2.79.68-2.19 0-3.94-1.63-3.94-4.17 0-2.62 1.96-4.29 4.46-4.29 2.93 0 4.39 1.92 4.39 5.2 0 5.96-5.32 9.39-6.7 9.39-.44 0-.68-.85-.68-1.1 0-.06.02-.16.16-.22zm5.41-7c.04-.41.08-.84.08-1.23 0-2.89-1.47-3.55-2.77-3.55-1.11 0-2.6.82-2.6 2.72 0 2.02 1.35 2.77 2.71 2.77 1.09 0 2-.38 2.58-.71z" fill="#fff"/><path d="M206.26 334.83c-.97-.58-1.71-1.59-1.71-3.16 0-2.35 1.76-3.57 3.92-3.57 2.17 0 3.96 1.22 3.96 3.57 0 1.69-.88 2.62-2 3.14 1.34.59 2.48 1.44 2.48 3.69 0 2.95-2 4.29-4.48 4.29-2.48 0-4.46-1.34-4.46-4.29 0-2.19 1.04-3.07 2.29-3.67zm2.17 6.47c1.46 0 2.7-.92 2.7-2.8 0-2.08-1.81-2.41-3.48-3.05-1.06.62-1.9 1.46-1.9 3.05 0 1.88 1.22 2.8 2.68 2.8zm2.27-9.63c0-1.46-1.01-2.08-2.23-2.08s-2.19.62-2.19 2.08c0 1.65 1.24 2.1 2.65 2.58.99-.58 1.77-1.36 1.77-2.58z" fill="#fff"/><path d="M216.72 341.39c2.81-1.16 4.44-3.18 5.1-5.49-.64.37-1.53.68-2.79.68-2.18 0-3.94-1.63-3.94-4.17 0-2.62 1.96-4.29 4.46-4.29 2.93 0 4.39 1.92 4.39 5.2 0 5.96-5.32 9.39-6.7 9.39-.44 0-.68-.85-.68-1.1 0-.06.02-.16.16-.22zm5.41-7c.04-.41.08-.84.08-1.23 0-2.89-1.47-3.55-2.77-3.55-1.11 0-2.59.82-2.59 2.72 0 2.02 1.34 2.77 2.7 2.77 1.09 0 2-.38 2.58-.71z" fill="#fff"/></g></g></g></svg>