<?xml version="1.0" encoding="UTF-8" standalone="no"?>
<svg width="360px" height="375px" viewBox="0 0 360 375" version="1.1" xmlns="http://www.w3.org/2000/svg" xmlns:xlink="http://www.w3.org/1999/xlink" xmlns:sketch="http://www.bohemiancoding.com/sketch/ns">
    <!-- Generator: Sketch 3.2.2 (9983) - http://www.bohemiancoding.com/sketch -->
    <title>Imported Layers</title>
    <desc>Created with Sketch.</desc>
    <defs></defs>
    <g id="Page-1" stroke="none" stroke-width="1" fill="none" fill-rule="evenodd" sketch:type="MSPage">
        <g id="Artboard-6" sketch:type="MSArtboardGroup" transform="translate(0.000000, -5.000000)">
            <g id="Imported-Layers" sketch:type="MSLayerGroup" transform="translate(0.000000, 5.000000)">
                <path d="M91.001,261.402 C91.026,261.749 91.053,262.087 91.078,262.432 C91.582,262.248 92.104,262.14 92.622,262.106 C92.603,261.832 92.587,261.565 92.568,261.292 C91.83,250.326 91.043,238.629 90.258,226.932 C89.39,215.241 88.523,203.55 87.709,192.589 C86.899,181.629 86.01,171.408 85.314,162.643 C84.612,153.878 83.919,146.582 83.484,141.471 C83.012,136.363 82.741,133.443 82.741,133.443 C82.741,133.443 82.885,136.372 83.136,141.496 C83.424,146.617 83.764,153.938 84.303,162.714 C84.848,171.49 85.404,181.734 86.144,192.7 C86.882,203.666 87.667,215.363 88.454,227.06 C89.32,238.751 90.187,250.442 91.001,261.402" id="Fill-1" fill="#FFFFFF" sketch:type="MSShapeGroup"></path>
                <path d="M279.06,141.472 C278.624,146.583 277.93,153.878 277.228,162.643 C276.534,171.409 275.641,181.629 274.834,192.59 C274.022,203.55 273.153,215.242 272.287,226.933 C271.502,238.63 270.715,250.327 269.978,261.293 C269.958,261.61 269.937,261.921 269.916,262.237 C270.442,262.112 270.975,262.062 271.49,262.101 C271.507,261.867 271.524,261.638 271.542,261.403 C272.356,250.442 273.225,238.752 274.091,227.061 C274.878,215.363 275.665,203.667 276.401,192.701 C277.147,181.736 277.699,171.491 278.246,162.716 C278.785,153.94 279.123,146.618 279.411,141.497 C279.661,136.373 279.804,133.444 279.804,133.444 C279.804,133.444 279.533,136.364 279.06,141.472" id="Fill-2" fill="#FFFFFF" sketch:type="MSShapeGroup"></path>
                <path d="M360.101,300.934 C347.415,298.127 334.657,295.629 321.845,293.427 L310.061,331.319 C299.408,329.156 288.941,327.254 278.603,325.593 L277.799,336.747 C301.826,339.743 325.708,343.843 349.334,349.068 C349.106,348.244 348.864,347.421 348.632,346.597 L337.801,343.327 L348.082,344.66 C346.957,340.663 345.81,336.668 344.631,332.675 L337.348,329.969 L344.14,331.03 C343.839,330.022 343.538,329.016 343.235,328.008 L336.216,325.668 L342.781,326.488 C342.385,325.178 342.007,323.865 341.605,322.553 C344.842,318.648 348.121,314.762 351.437,310.895 L347.535,309.368 L352.246,309.957 C352.643,309.493 353.043,309.032 353.443,308.569 L344.366,305.745 L354.403,307.454 C355.314,306.403 356.228,305.356 357.145,304.307 L353.195,302.802 L358.105,303.211 C358.771,302.453 359.432,301.691 360.101,300.934" id="Fill-3" fill="#FFFFFF" sketch:type="MSShapeGroup"></path>
                <path d="M48.659,331.319 L36.972,293.736 C24.738,295.864 12.551,298.254 0.433,300.934 C1.065,301.674 1.69,302.417 2.319,303.158 L6.582,302.802 L3.133,304.116 C4.051,305.199 4.97,306.281 5.882,307.367 L15.412,305.745 L6.771,308.433 C7.18,308.921 7.587,309.41 7.995,309.898 L12.242,309.368 L8.707,310.751 C12.224,314.978 15.699,319.225 19.124,323.494 C18.804,324.481 18.501,325.468 18.185,326.453 L24.467,325.668 L17.721,327.918 C17.408,328.896 17.099,329.874 16.789,330.85 L22.43,329.969 L16.353,332.226 C15.061,336.331 13.8,340.439 12.565,344.547 L21.977,343.327 L12.026,346.332 C11.754,347.243 11.468,348.155 11.198,349.068 C35.29,343.74 59.648,339.575 84.154,336.563 L83.326,325.08 C71.95,326.856 60.414,328.931 48.659,331.319" id="Fill-4" fill="#FFFFFF" sketch:type="MSShapeGroup"></path>
                <path d="M209.265,358.801 C209.265,358.801 180.979,360.778 149.958,358.407 C149.958,358.407 180.066,363.152 209.265,358.801" id="Fill-5" fill="#FFFFFF" sketch:type="MSShapeGroup"></path>
                <path d="M166.615,91.847 C166.508,91.312 166.423,90.769 166.327,90.23 C143.284,92.065 127.07,95.313 127.07,95.313 C140.826,93.685 154.273,92.585 166.615,91.847" id="Fill-6" fill="#FFFFFF" sketch:type="MSShapeGroup"></path>
                <path d="M285.266,264.68 L296.704,106.036 C295.213,109.395 293.46,112.611 291.471,115.661 L280.771,264.045 C282.269,264.25 283.768,264.465 285.266,264.68" id="Fill-7" fill="#FFFFFF" sketch:type="MSShapeGroup"></path>
                <path d="M69.569,102.829 L70.352,103.496 L71.558,117.044 L71.842,104.762 L72.391,105.227 L72.689,108.328 L72.907,105.667 L73.553,106.217 L84.678,263.154 C85.578,263.04 86.478,262.927 87.379,262.816 L77.355,121.419 C80.914,119.4 93.631,115.53 93.631,115.53 C87.287,116.357 79.545,119.514 77.288,120.477 L77.164,118.722 C81.402,115.951 100.846,110.032 100.846,110.032 C91.245,111.284 79.407,116.276 77.061,117.294 L76.948,115.7 C82.683,112.946 113.412,103.749 113.412,103.749 C104.103,104.369 76.952,114.221 76.952,114.221 L76.874,114.633 L76.771,113.191 C81.248,110.605 98.518,104.912 98.518,104.912 C90.637,105.94 79.617,110.708 76.688,112.022 L76.549,110.059 C80.47,108.127 89.906,104.679 89.906,104.679 C85.506,105.253 79.307,108.01 76.499,109.345 L76.368,107.497 C81.862,104.955 114.863,90.672 166.007,88.347 C165.875,87.452 165.762,86.55 165.664,85.644 C113.697,88.046 80.249,102.692 75.053,105.113 L73.49,103.786 L79.425,100.517 L72.718,103.128 L71.63,102.204 L82.425,97.517 L71.076,101.733 L70.285,101.061 C79.023,97.26 113.477,83.737 165.339,81.487 C165.287,80.396 165.256,79.3 165.256,78.196 C165.256,77.779 165.278,77.368 165.285,76.953 C104.102,79.591 66.497,97.794 66.096,97.991 L64.73,98.665 L76.667,264.215 C78.165,264.007 79.665,263.818 81.163,263.62 L69.569,102.829" id="Fill-8" fill="#FFFFFF" sketch:type="MSShapeGroup"></path>
                <path d="M277.257,263.58 L287.341,121.345 C286.388,122.523 285.4,123.667 284.373,124.779 L274.558,263.223 C275.458,263.338 276.356,263.461 277.257,263.58" id="Fill-9" fill="#FFFFFF" sketch:type="MSShapeGroup"></path>
                <path d="M274.23,354.738 L271.036,351.325 L272.924,324.707 C272.025,324.57 271.125,324.433 270.228,324.299 L268.946,342.386 C261.309,345.154 226.6,354.058 226.6,354.058 C234.911,353.576 263.779,345.113 268.859,343.608 L268.751,345.145 C263.786,347.436 241.503,353.134 241.503,353.134 C249.332,352.25 264.832,347.397 268.679,346.166 L268.55,347.971 C264.752,349.528 252.603,352.74 252.603,352.74 C257.279,352.211 265.585,349.547 268.507,348.574 L268.391,350.216 C262.699,352.151 228.165,363.184 181.274,363.184 C134.359,363.184 99.33,352.14 93.572,350.212 L93.465,348.679 C96.629,349.724 104.535,352.229 109.053,352.74 C109.053,352.74 97.534,349.694 93.422,348.097 L93.293,346.266 C97.601,347.639 112.522,352.273 120.154,353.134 C120.154,353.134 98.75,347.66 93.225,345.286 L93.111,343.702 C98.942,345.424 126.897,353.585 135.057,354.058 C135.057,354.058 101.263,345.389 93.026,342.499 L91.703,323.826 C90.807,323.955 89.906,324.089 89.008,324.221 L90.927,351.302 L90.929,351.325 L89.593,352.752 L88.311,338.648 L88.74,353.665 L87.734,354.738 L85.571,324.74 C84.076,324.969 82.582,325.197 81.082,325.436 L83.565,359.86 L84.959,360.356 C85.36,360.497 125.692,374.569 181.296,374.569 C236.904,374.569 276.622,360.494 277.018,360.353 L278.403,359.852 L280.848,325.96 C279.351,325.715 277.85,325.462 276.358,325.227 L274.23,354.738 L274.23,354.738 Z M181.296,370.041 C133.241,370.041 96.851,359.417 88.369,356.712 L88.891,356.153 L97.066,357.816 L89.616,355.379 L90.654,354.27 L92.688,354.496 L91.236,353.649 L92.202,352.616 C96.247,354.002 132.391,365.9 181.274,365.9 C230.116,365.9 265.725,354.022 269.763,352.616 L273.604,356.721 C265.229,359.431 229.366,370.041 181.296,370.041 L181.296,370.041 Z" id="Fill-10" fill="#FFFFFF" sketch:type="MSShapeGroup"></path>
                <path d="M69.378,293.798 C69.068,291.812 67.795,291.048 65.11,291.466 L62.105,291.935 L63.05,298.002 L66.163,297.517 C68.338,297.178 69.65,295.543 69.378,293.798" id="Fill-11" fill="#FFFFFF" sketch:type="MSShapeGroup"></path>
                <path d="M196.448,282.645 L195.996,284.215 L193.051,292.278 L199.544,292.352 L196.785,284.224 L196.448,282.645" id="Fill-12" fill="#FFFFFF" sketch:type="MSShapeGroup"></path>
                <path d="M112.572,285.669 L108.728,286.026 L109.356,292.79 L113.577,292.398 C114.659,292.297 116.798,291.525 116.523,288.577 C116.276,285.898 114.166,285.522 112.572,285.669" id="Fill-13" fill="#FFFFFF" sketch:type="MSShapeGroup"></path>
                <path d="M210.473,282.549 L210.239,289.338 L214.476,289.483 C215.561,289.521 217.781,289.026 217.884,286.066 C217.976,283.379 215.931,282.737 214.329,282.682 L210.473,282.549" id="Fill-14" fill="#FFFFFF" sketch:type="MSShapeGroup"></path>
                <path d="M66.831,299.502 L63.368,300.042 L64.397,306.646 L68.317,306.034 C70.705,305.662 71.812,304.114 71.481,301.994 C71.176,300.034 69.596,299.071 66.831,299.502" id="Fill-15" fill="#FFFFFF" sketch:type="MSShapeGroup"></path>
                <path d="M131.385,299.25 C135.207,298.982 137.106,296.18 136.756,291.194 C136.407,286.208 134.14,283.806 130.319,284.075 C126.499,284.343 124.617,287.035 124.968,292.021 C125.317,297.008 127.564,299.519 131.385,299.25" id="Fill-16" fill="#FFFFFF" sketch:type="MSShapeGroup"></path>
                <path d="M226.897,283.236 L226.51,290.016 L230.74,290.258 C231.825,290.32 234.054,289.877 234.224,286.921 C234.377,284.236 232.349,283.549 230.749,283.457 L226.897,283.236" id="Fill-17" fill="#FFFFFF" sketch:type="MSShapeGroup"></path>
                <path d="M326.201,273.801 C229.185,255.293 129.54,255.293 32.519,273.801 L33.673,277.283 L55.163,273.979 L34.14,278.596 L34.082,278.518 L34.782,280.636 L49.228,278.634 L35.295,282.184 L35.934,284.108 L41.509,283.522 L36.396,285.51 L47.093,317.802 L52.731,317.477 L47.559,319.212 L48.152,321.003 L62.631,319.13 L48.67,322.567 L49.51,325.106 L49.563,324.865 L74.707,320.526 L49.884,326.232 L50.644,328.526 C140.766,311.335 217.956,311.335 308.077,328.526 L308.845,326.21 L284.112,320.526 L309.257,324.865 L309.269,324.923 L310.059,322.544 L296.189,319.13 L310.573,320.991 L311.172,319.182 L306.089,317.477 L311.631,317.795 L322.283,285.634 L317.241,283.671 L322.741,284.251 L323.393,282.283 L309.067,278.634 L323.92,280.691 L324.644,278.504 L304.039,273.979 L325.072,277.212 L326.201,273.801 L326.201,273.801 Z M67.775,308.208 L63.159,308.928 C62.596,309.017 62.315,308.812 62.228,308.249 L59.55,291.069 C59.463,290.505 59.666,290.226 60.228,290.138 L65.034,289.389 C69.033,288.766 71.347,290.384 71.787,293.203 C72.068,295.001 70.961,297.071 69.472,297.744 L69.488,297.851 C69.488,297.851 73.388,298.178 73.939,301.721 C74.521,305.452 72.284,307.505 67.775,308.208 L67.775,308.208 Z M252.222,270.164 C252.222,270.164 180.227,265.013 110.498,270.164 C110.498,270.164 186.566,261.844 252.222,270.164 L252.222,270.164 Z M236.69,287.062 C236.406,292.025 232.004,292.398 230.596,292.317 L226.391,292.077 L225.958,299.617 C225.936,299.996 225.599,300.194 224.84,300.151 L224.623,300.138 C223.864,300.094 223.551,299.859 223.572,299.479 L224.582,281.852 C224.613,281.282 224.872,281.052 225.443,281.085 L230.947,281.399 C233.278,281.534 236.952,282.479 236.69,287.062 L236.69,287.062 Z M220.354,286.151 C220.183,291.122 215.79,291.596 214.378,291.547 L210.169,291.403 L209.91,298.952 C209.896,299.332 209.563,299.538 208.803,299.512 L208.586,299.504 C207.825,299.478 207.507,299.25 207.52,298.869 L208.126,281.218 C208.145,280.648 208.398,280.412 208.968,280.431 L214.48,280.621 C216.817,280.701 220.512,281.563 220.354,286.151 L220.354,286.151 Z M204.278,298.899 C204.273,299.171 203.92,299.357 203.104,299.348 L202.887,299.346 C202.344,299.339 201.91,299.226 201.805,298.898 L200.253,294.425 L192.268,294.335 L190.668,298.771 C190.556,299.096 190.12,299.2 189.575,299.194 L189.439,299.192 C188.626,299.183 188.273,299.015 188.277,298.716 C188.279,298.607 188.308,298.5 188.364,298.337 L195.006,280.564 C195.118,280.238 195.554,280.135 196.097,280.141 L196.886,280.15 C197.427,280.156 197.86,280.271 197.966,280.598 L204.201,298.546 C204.252,298.682 204.278,298.79 204.278,298.899 L204.278,298.899 Z M162.951,288.787 L170.036,288.59 C170.417,288.58 170.586,288.819 170.603,289.39 L170.613,289.824 C170.631,290.395 170.473,290.643 170.095,290.654 L163.008,290.851 L163.191,297.476 L171.119,297.255 C171.499,297.245 171.669,297.485 171.685,298.056 L171.697,298.49 C171.713,299.061 171.558,299.309 171.177,299.319 L161.672,299.583 C161.102,299.599 160.851,299.361 160.835,298.792 L160.354,281.414 C160.338,280.843 160.575,280.592 161.144,280.576 L170.622,280.313 C171.002,280.303 171.172,280.542 171.187,281.112 L171.2,281.547 C171.216,282.118 171.06,282.366 170.679,282.377 L162.777,282.596 L162.951,288.787 L162.951,288.787 Z M146.999,299.66 C147.019,300.04 146.701,300.273 145.942,300.309 L145.727,300.319 C144.967,300.356 144.631,300.154 144.612,299.774 L143.759,281.867 C143.74,281.487 144.056,281.254 144.816,281.218 L145.032,281.208 C145.792,281.171 146.129,281.373 146.146,281.752 L146.542,290.056 L146.65,290.05 L152.919,281.213 C153.148,280.903 153.769,280.791 154.367,280.763 L154.638,280.75 C155.289,280.719 155.595,280.867 155.603,281.058 C155.61,281.193 155.538,281.387 155.357,281.613 L148.977,290.401 L157.625,298.936 C157.825,299.144 157.885,299.25 157.891,299.359 C157.904,299.658 157.557,299.755 156.714,299.795 L156.389,299.811 C155.791,299.839 155.222,299.867 154.88,299.53 L146.703,291.162 L146.596,291.169 L146.999,299.66 L146.999,299.66 Z M89.084,305.228 L79.658,306.465 C79.092,306.539 78.819,306.328 78.745,305.763 L76.483,288.528 C76.409,287.961 76.619,287.688 77.184,287.613 L86.584,286.379 C86.961,286.33 87.154,286.551 87.228,287.117 L87.285,287.548 C87.359,288.113 87.228,288.377 86.852,288.427 L79.015,289.455 L79.821,295.595 L86.85,294.672 C87.227,294.623 87.421,294.845 87.495,295.41 L87.552,295.84 C87.626,296.406 87.495,296.67 87.118,296.719 L80.09,297.642 L80.951,304.213 L88.814,303.181 C89.193,303.131 89.386,303.352 89.46,303.918 L89.516,304.349 C89.591,304.914 89.462,305.177 89.084,305.228 L89.084,305.228 Z M98.134,304.345 C94.976,304.698 92.407,303.726 92.326,302.997 C92.278,302.565 92.811,301.467 93.109,301.433 C93.459,301.394 95.126,302.603 97.906,302.293 C99.96,302.065 101.304,300.63 101.079,298.631 C100.56,293.96 92.015,297.017 91.309,290.67 C90.975,287.672 93.131,285.437 96.749,285.034 C98.288,284.862 101.173,285.225 101.281,286.196 C101.327,286.602 100.848,287.694 100.577,287.724 C100.17,287.769 99.058,286.855 96.923,287.091 C94.899,287.318 93.548,288.453 93.777,290.504 C94.217,294.447 102.791,291.66 103.539,298.358 C103.907,301.68 101.781,303.94 98.134,304.345 L98.134,304.345 Z M113.741,294.457 L109.548,294.846 L110.246,302.367 C110.282,302.746 109.976,302.992 109.219,303.062 L109.003,303.082 C108.244,303.152 107.899,302.967 107.865,302.587 L106.233,285.002 C106.18,284.434 106.401,284.168 106.969,284.116 L112.461,283.606 C114.788,283.39 118.562,283.777 118.985,288.348 C119.445,293.3 115.147,294.326 113.741,294.457 L113.741,294.457 Z M130.175,282.015 C135.622,281.633 138.777,284.68 139.222,291.021 C139.667,297.362 136.977,300.928 131.529,301.31 C126.11,301.69 122.946,298.536 122.502,292.194 C122.057,285.854 124.755,282.396 130.175,282.015 L130.175,282.015 Z M123.176,311.701 C123.176,311.701 184.982,304.94 238.326,311.701 C238.326,311.701 179.831,307.516 123.176,311.701 L123.176,311.701 Z M252.385,302.095 L252.167,302.077 C251.626,302.033 251.201,301.889 251.12,301.555 L249.885,296.983 L241.923,296.331 L240.016,300.647 C239.88,300.962 239.437,301.035 238.898,300.991 L238.762,300.98 C237.95,300.913 237.61,300.722 237.635,300.424 C237.643,300.316 237.68,300.21 237.748,300.052 L245.621,282.785 C245.757,282.468 246.199,282.396 246.74,282.44 L247.527,282.504 C248.067,282.548 248.491,282.692 248.573,283.026 L253.534,301.371 C253.576,301.511 253.596,301.622 253.586,301.729 C253.564,302.001 253.196,302.161 252.385,302.095 L252.385,302.095 Z M268.882,297.644 L270.407,303.195 C270.442,303.362 270.455,303.501 270.447,303.581 C270.418,303.852 270.048,303.976 269.266,303.89 L268.995,303.86 C268.456,303.801 268.04,303.592 267.963,303.31 L266.487,297.793 C265.907,295.599 264.858,294.939 262.754,294.709 L260.323,294.443 L259.475,302.219 C259.432,302.598 259.085,302.778 258.328,302.696 L258.112,302.672 C257.357,302.589 257.057,302.338 257.098,301.96 L259.015,284.408 C259.074,283.842 259.346,283.625 259.913,283.688 L264.45,284.183 C268.661,284.642 270.807,286.27 270.435,289.672 C270.183,291.994 268.805,293.347 266.832,293.897 L266.82,294.004 C267.913,294.506 268.375,295.787 268.882,297.644 L268.882,297.644 Z M287.249,287.867 L287.19,288.298 C287.112,288.863 286.918,289.083 286.541,289.032 L278.706,287.966 L277.871,294.104 L284.898,295.06 C285.274,295.112 285.404,295.376 285.326,295.941 L285.268,296.372 C285.189,296.938 284.995,297.158 284.618,297.107 L277.593,296.15 L276.698,302.719 L284.56,303.79 C284.936,303.84 285.066,304.105 284.988,304.671 L284.93,305.102 C284.852,305.667 284.657,305.887 284.28,305.835 L274.858,304.553 C274.293,304.476 274.084,304.2 274.16,303.635 L276.507,286.404 C276.583,285.839 276.857,285.629 277.424,285.708 L286.818,286.986 C287.197,287.038 287.324,287.301 287.249,287.867 L287.249,287.867 Z M299.77,307.032 L299.7,307.462 C299.608,308.025 299.408,308.24 299.033,308.179 L290.103,306.734 C289.541,306.642 289.339,306.362 289.43,305.799 L292.251,288.368 C292.311,287.994 292.668,287.831 293.42,287.952 L293.634,287.987 C294.386,288.108 294.672,288.375 294.61,288.75 L291.989,304.948 L299.362,306.142 C299.739,306.202 299.861,306.47 299.77,307.032 L299.77,307.032 Z" id="Fill-18" fill="#FFFFFF" sketch:type="MSShapeGroup"></path>
                <path d="M246.916,284.962 L246.354,286.497 L242.85,294.335 L249.323,294.865 L247.141,286.562 L246.916,284.962" id="Fill-19" fill="#FFFFFF" sketch:type="MSShapeGroup"></path>
                <path d="M267.931,289.835 C268.17,287.648 266.816,286.518 264.63,286.279 L261.256,285.91 L260.548,292.392 L264.112,292.78 C266.056,292.992 267.736,291.619 267.931,289.835" id="Fill-20" fill="#FFFFFF" sketch:type="MSShapeGroup"></path>
                <path d="M209.271,233.465 L209.389,235.166 L210.937,235.154 L210.837,233.684 C210.747,233.7 210.66,233.725 210.566,233.73 C210.102,233.762 209.663,233.657 209.271,233.465" id="Fill-21" fill="#FFFFFF" sketch:type="MSShapeGroup"></path>
                <path d="M212.934,231.015 C212.91,230.682 212.821,230.368 212.683,230.085 C212.245,229.175 211.288,228.574 210.22,228.648 C209.599,228.69 209.055,228.96 208.639,229.358 C208.115,229.863 207.799,230.58 207.853,231.362 C207.917,232.301 208.484,233.077 209.271,233.465 L209.234,232.922 C208.717,232.573 208.352,232.004 208.307,231.332 C208.26,230.652 208.549,230.032 209.022,229.618 C209.194,229.706 209.376,229.779 209.576,229.814 L211.672,230.184 C211.861,230.217 212.045,230.213 212.228,230.192 C212.367,230.449 212.459,230.735 212.48,231.046 C212.553,232.088 211.844,232.989 210.858,233.216 L210.854,233.174 C210.837,233.177 210.819,233.179 210.802,233.183 L210.634,230.716 L209.092,230.822 L209.234,232.922 C209.252,232.933 209.273,232.942 209.291,232.954 L209.323,233.408 C209.714,233.601 210.152,233.705 210.618,233.674 C210.692,233.669 210.763,233.651 210.834,233.637 L210.837,233.684 C212.102,233.461 213.023,232.326 212.934,231.015" id="Fill-22" fill="#FFFFFF" sketch:type="MSShapeGroup"></path>
                <path d="M112.567,86.793 C111.792,87.57 111.371,87.992 111.371,87.992 C111.371,87.992 111.798,87.607 112.574,86.905 L112.567,86.793" id="Fill-23" fill="#000000" sketch:type="MSShapeGroup"></path>
                <path d="M116.649,105.954 C116.656,105.892 116.665,105.832 116.672,105.768 C114.857,104.934 113.83,104.462 113.83,104.462 C113.83,104.462 114.852,105.002 116.649,105.954" id="Fill-24" fill="#000000" sketch:type="MSShapeGroup"></path>
                <path d="M194.758,144.414 C194.758,144.414 193.824,143.92 192.165,143.043 C192.492,143.254 192.817,143.467 193.146,143.675 C194.182,144.149 194.758,144.414 194.758,144.414" id="Fill-25" fill="#000000" sketch:type="MSShapeGroup"></path>
                <path d="M114.472,85.186 C116.428,83.383 119.256,80.842 122.594,77.731 C125.926,74.619 129.85,71.023 133.99,67.105 C138.134,63.19 142.551,59.012 146.971,54.836 C151.355,50.623 155.74,46.41 159.849,42.458 C163.963,38.513 167.74,34.765 171.009,31.585 C174.276,28.402 176.95,25.699 178.845,23.831 C180.721,21.945 181.795,20.868 181.795,20.868 C181.795,20.868 180.666,21.887 178.694,23.672 C176.736,25.475 173.908,28.016 170.572,31.127 C167.24,34.239 163.315,37.833 159.177,41.753 C155.032,45.669 150.614,49.846 146.195,54.023 C141.81,58.237 137.428,62.449 133.317,66.4 C129.207,70.35 125.428,74.095 122.157,77.276 C118.891,80.458 116.218,83.16 114.323,85.028 C113.619,85.734 113.028,86.326 112.567,86.793 L112.574,86.905 C113.069,86.456 113.704,85.881 114.472,85.186" id="Fill-26" fill="#FFFFFF" sketch:type="MSShapeGroup"></path>
                <path d="M117.26,106.277 C119.453,107.41 122.563,109.069 126.335,110.988 C130.109,112.901 134.486,115.18 139.22,117.54 C143.951,119.902 148.999,122.422 154.044,124.941 C159.114,127.416 164.184,129.891 168.934,132.21 C173.685,134.536 178.158,136.624 181.972,138.456 C185.787,140.283 188.997,141.744 191.23,142.795 C191.986,143.143 192.621,143.433 193.146,143.675 C192.817,143.467 192.492,143.254 192.165,143.043 C191.903,142.903 191.627,142.757 191.326,142.599 C189.135,141.466 186.023,139.806 182.251,137.888 C178.478,135.974 174.101,133.693 169.366,131.335 C164.637,128.973 159.589,126.454 154.542,123.935 C149.473,121.46 144.404,118.986 139.651,116.665 C134.9,114.345 130.43,112.252 126.616,110.422 C122.797,108.595 119.587,107.132 117.354,106.081 C117.114,105.97 116.89,105.868 116.672,105.768 C116.665,105.832 116.656,105.892 116.649,105.954 C116.846,106.058 117.045,106.163 117.26,106.277" id="Fill-27" fill="#FFFFFF" sketch:type="MSShapeGroup"></path>
                <path d="M112.141,80.562 L110.869,80.649 L111.371,87.992 C111.371,87.992 111.792,87.57 112.567,86.793 L112.141,80.562" id="Fill-28" fill="#FFFFFF" sketch:type="MSShapeGroup"></path>
                <path d="M239.638,155.358 C282.341,152.438 314.59,115.452 311.669,72.75 C308.749,30.046 271.764,-2.204 229.06,0.717 C186.358,3.639 154.107,40.625 157.027,83.327 C158.757,108.61 172.436,130.219 192.165,143.043 C193.824,143.92 194.758,144.414 194.758,144.414 C194.758,144.414 194.182,144.149 193.146,143.675 C195.359,145.067 197.644,146.355 199.998,147.521 C198.266,152.71 197.263,157.477 197.062,161.096 C195.633,161.412 194.498,162.211 194.029,163.413 C193.611,164.481 193.796,165.669 194.425,166.763 C193.41,167.152 192.625,167.837 192.257,168.776 C191.857,169.799 192.026,170.939 192.625,171.985 L120.184,158.354 L120.014,156.702 C120.014,156.702 124.115,155.328 119.798,153.525 L122.805,149.491 C122.805,149.491 123.597,146.428 121.892,142.807 C120.184,139.186 121.671,138.263 121.671,138.263 C121.671,138.263 122.265,136.308 121.305,135.553 C120.974,135.295 120.784,134.998 120.671,134.716 C124.357,132.978 126.791,129.114 126.496,124.803 C126.361,122.851 125.683,121.064 124.624,119.58 C124.639,119.331 124.643,119.08 124.626,118.821 C124.447,116.187 122.509,114.095 120.038,113.6 C120.034,113.501 120.038,113.403 120.031,113.301 C119.866,110.891 118.359,108.894 116.288,107.983 C116.451,107.369 116.567,106.679 116.649,105.954 C114.852,105.002 113.83,104.462 113.83,104.462 C113.83,104.462 114.857,104.934 116.672,105.768 C116.783,104.721 116.815,103.593 116.734,102.404 C116.547,99.662 115.848,97.248 114.907,95.69 L114.509,89.881 C114.441,88.882 113.653,88.093 112.643,87.905 L112.574,86.905 C111.798,87.607 111.371,87.992 111.371,87.992 C110.395,88.316 109.723,89.206 109.79,90.205 L110.188,96.014 C109.468,97.685 109.105,100.17 109.293,102.914 C109.435,105.004 109.875,106.904 110.496,108.38 C108.568,109.562 107.342,111.747 107.509,114.158 C107.614,115.715 108.283,117.097 109.3,118.128 C107.186,120.145 105.952,123.052 106.166,126.193 C106.504,131.132 110.307,135.005 115.04,135.605 L115.047,135.7 C114.797,136.483 114.683,137.55 114.762,138.714 C114.864,140.222 115.266,141.52 115.788,142.232 L115.837,142.942 C115.172,143.431 114.757,144.404 114.831,145.496 C114.896,146.427 115.3,147.225 115.867,147.684 L116.277,153.71 C115.655,154.047 115.257,154.601 115.3,155.2 C115.34,155.802 115.808,156.295 116.473,156.544 L116.549,157.669 L101.5,154.84 L98.19,163.331 L98.192,165.12 L260.41,196.153 L260.419,196.122 L261.986,192.368 L263.077,185.242 L221.292,177.378 C221.686,174.84 222.291,171.064 222.435,170.833 C222.654,170.481 224.306,169.944 224.445,169.124 C224.554,168.48 223.745,167.822 223.655,167.277 C223.563,166.731 224.174,165.282 224.357,164.189 C224.792,161.619 224.844,159.233 224.576,157.443 L224.992,154.981 C229.768,155.556 234.662,155.699 239.638,155.358 L239.638,155.358 Z M119.297,143.531 L118.684,144.109 C118.444,143.529 118.057,143.071 117.599,142.821 L117.551,142.112 C117.969,141.335 118.193,139.995 118.089,138.487 C118.013,137.366 117.767,136.36 117.435,135.625 C117.746,135.591 118.054,135.543 118.356,135.482 C118.393,136.426 118.51,138.141 118.872,138.636 C119.373,139.331 119.297,143.531 119.297,143.531 L119.297,143.531 Z M222.808,140.971 L222.433,143.192 C222.404,143.188 222.38,143.184 222.351,143.179 C222.668,139.496 222.709,136.276 222.498,134.046 L224.074,121.193 C224.624,119.853 225.092,117.978 225.35,115.877 C225.461,114.983 225.367,113.721 225.541,113.314 C225.716,112.905 226.375,112.569 226.44,112.042 C226.46,111.892 226.425,111.738 226.361,111.584 C226.294,111.015 225.755,110.289 225.52,109.843 C225.55,109.493 225.611,108.959 225.687,108.34 C225.823,108.044 225.995,107.786 226.176,107.668 C226.488,107.462 227.304,107.344 227.872,107.07 C227.909,108.638 228.08,110.042 227.986,110.599 C227.836,111.485 224.932,119.322 223.869,125.606 C222.822,131.795 222.48,137.386 222.808,140.971 L222.808,140.971 Z M217.971,128.656 C217.971,128.656 219.104,125.134 219.442,124.89 C219.624,124.759 220.134,124.679 220.594,124.547 L219.474,133.675 C218.761,135.694 218.056,138.649 217.484,142.095 C216.941,141.952 216.398,141.8 215.858,141.644 C217.38,136.462 218.113,131.866 217.971,128.656 L217.971,128.656 Z M220.558,122.037 C220.482,121.759 220.731,121.038 221.011,120.48 C221.023,120.595 221.035,120.713 221.052,120.822 L220.841,122.544 C220.705,122.339 220.592,122.161 220.558,122.037 L220.558,122.037 Z M220.64,101.758 C220.188,102.115 219.057,102.229 218.824,102.82 C218.558,103.499 219.604,104.7 219.735,105.151 C219.866,105.602 219.275,106.955 218.978,107.088 C218.68,107.222 216.992,107.504 216.726,108.185 C216.462,108.865 217.519,110.201 217.638,110.516 C217.757,110.834 217.166,112.356 216.824,112.599 C216.483,112.841 214.99,113.545 214.631,114.461 C214.272,115.379 214.912,116.952 214.979,117.318 C215.045,117.685 214.436,119.333 214.12,119.518 C213.8,119.705 212.341,119.821 212.121,120.383 C211.902,120.944 212.869,122.012 213.004,122.373 C213.139,122.734 211.532,126.139 211.532,126.139 C209.258,128.392 206.689,132.244 204.302,137.059 C199.829,134.775 195.641,131.997 191.812,128.788 C192.021,128.717 192.22,128.597 192.383,128.417 C192.837,127.911 193.132,127.48 192.409,126.654 L198.735,119.62 C198.735,119.62 198.53,119.327 198.511,119.04 C198.493,118.752 199.328,117.81 199.56,117.901 C199.788,117.992 201.07,118.347 201.447,117.928 C201.825,117.509 201.18,116.29 201.164,115.999 C201.146,115.706 203.021,113.814 203.021,113.814 C203.598,113.94 204.102,113.656 204.521,113.19 L215.098,101.432 C215.278,101.231 215.507,101.094 215.574,100.853 C216.032,100.977 216.538,101.024 216.763,100.775 C217.051,100.454 216.948,99.856 216.6,99.268 C216.6,99.268 219.048,96.122 219.334,96.109 C219.622,96.095 219.875,96.123 219.875,96.123 L225.16,90.25 C224.141,93.016 221.017,101.46 220.64,101.758 L220.64,101.758 Z M213.826,57.603 C213.575,57.387 213.148,57.425 212.712,57.601 C212.616,57.365 212.399,57.225 212.195,57.048 L200.222,46.713 C199.747,46.302 199.174,46.127 198.619,46.325 C198.619,46.325 196.533,44.696 196.511,44.371 C196.489,44.046 196.916,42.86 196.494,42.496 C196.07,42.129 194.922,42.577 194.644,42.74 C194.368,42.901 193.504,41.983 193.486,41.708 C193.467,41.433 193.622,41.014 193.622,41.014 L186.512,34.876 C186.889,34.241 186.744,33.621 186.225,33.174 C186.108,33.076 185.981,33.008 185.847,32.956 C190.378,28.081 195.641,23.878 201.478,20.535 C201.496,20.698 201.543,20.862 201.626,21.018 C201.94,21.621 202.245,22.046 203.269,21.653 L207.675,30.028 C207.675,30.028 208.018,29.936 208.296,30.021 C208.571,30.103 209.166,31.213 208.998,31.396 C208.835,31.58 208.057,32.662 208.318,33.16 C208.582,33.658 209.947,33.477 210.228,33.562 C210.508,33.647 211.631,36.061 211.631,36.061 C211.312,36.559 211.406,37.128 211.697,37.685 L219.058,51.684 C219.186,51.921 219.235,52.181 219.436,52.33 C219.162,52.716 218.941,53.174 219.099,53.471 C219.301,53.852 219.896,53.962 220.567,53.84 C220.567,53.84 222.67,57.228 222.583,57.502 C222.496,57.776 222.384,58.004 222.384,58.004 L229.743,72.006 C229.702,72.035 229.66,72.062 229.621,72.092 L217.601,61.715 C217.601,61.715 217.304,61.826 217.018,61.851 C216.728,61.875 213.908,59.052 213.908,59.052 C214.17,58.43 214.15,57.883 213.826,57.603 L213.826,57.603 Z M227.813,104.562 C227.787,104.418 228.01,103.729 228.37,102.746 C228.23,103.26 228.11,103.779 228.025,104.29 C227.99,104.506 227.962,104.727 227.94,104.952 C227.883,104.819 227.836,104.69 227.813,104.562 L227.813,104.562 Z M227.233,141.719 C228.721,138.439 230.238,133.049 231.283,126.858 C232.345,120.575 232.146,112.392 232.327,111.333 C232.506,110.275 233.956,107.785 234.363,105.361 C234.586,104.047 234.628,102.596 234.579,101.327 C234.682,101.382 234.85,101.478 234.987,101.597 C235.207,101.785 235.185,105.777 235.185,105.777 C234.561,106.026 234.184,106.426 234.213,106.853 C234.235,107.182 234.562,107.461 234.996,107.645 C234.897,107.88 234.948,108.132 234.968,108.404 L236.047,124.184 C236.089,124.809 236.367,125.339 236.901,125.596 C236.901,125.596 237.211,128.222 236.993,128.467 C236.779,128.71 235.635,129.241 235.674,129.8 C235.711,130.358 236.838,130.86 237.146,130.94 C237.458,131.024 237.414,132.283 237.231,132.49 C237.048,132.697 236.641,132.883 236.641,132.883 L237.283,142.252 C236.565,142.432 236.228,142.973 236.275,143.653 C236.289,143.863 236.358,144.054 236.459,144.222 C233.215,144.328 230.014,144.198 226.874,143.845 L227.233,141.719 L227.233,141.719 Z M230.112,98.312 C230.439,97.505 230.77,96.698 231.08,95.949 C230.905,96.801 230.757,97.37 230.652,97.478 C230.521,97.615 230.332,97.91 230.112,98.312 L230.112,98.312 Z M234.176,96.827 L234.305,98.71 C234.244,98.415 234.183,98.191 234.121,98.064 C234.065,97.95 234.094,97.501 234.176,96.827 L234.176,96.827 Z M237.872,108.206 C237.852,107.938 237.913,107.679 237.785,107.462 C238.194,107.219 238.58,106.89 238.557,106.555 C238.526,106.126 238.027,105.782 237.362,105.622 C237.362,105.622 236.808,101.675 236.996,101.46 C237.189,101.243 237.384,101.081 237.384,101.081 L236.332,85.689 C236.409,85.668 236.487,85.642 236.563,85.619 L243.608,99.371 C243.608,99.371 243.857,99.409 244.135,99.496 C244.409,99.582 245.97,103.251 245.97,103.251 C245.481,103.73 245.23,104.282 245.425,104.667 C245.576,104.964 246.077,105.048 246.553,105.046 C246.557,105.296 246.74,105.487 246.862,105.728 L254.072,119.805 C254.358,120.364 254.771,120.766 255.36,120.794 C255.36,120.794 256.686,123.104 256.597,123.38 C256.503,123.657 255.569,124.669 255.825,125.173 C256.084,125.671 257.414,125.661 257.66,125.632 C257.905,125.601 258.47,126.726 258.38,127 C258.287,127.274 258.014,127.504 258.014,127.504 L262.325,135.927 C261.415,136.538 261.588,137.032 261.899,137.637 C261.995,137.826 262.129,137.977 262.285,138.094 C255.827,141.099 248.787,143.099 241.343,143.885 C241.413,143.706 241.45,143.51 241.436,143.3 C241.389,142.621 241.284,142.109 240.186,142.054 L239.542,132.615 C239.542,132.615 239.188,132.559 238.969,132.372 C238.748,132.184 238.654,130.928 238.88,130.828 C239.104,130.727 240.251,130.051 240.214,129.489 C240.175,128.926 238.851,128.541 238.631,128.351 C238.41,128.16 238.355,125.497 238.355,125.497 C238.847,125.169 238.993,124.61 238.951,123.985 L237.872,108.206 L237.872,108.206 Z M242.822,56.47 C242.688,56.214 244.19,52.522 244.19,52.522 C244.876,52.529 245.444,52.318 245.576,51.909 C245.683,51.59 245.389,51.177 245.05,50.841 C245.226,50.66 245.231,50.396 245.314,50.14 L250.214,35.102 C250.409,34.506 250.401,33.928 250.004,33.491 C250.004,33.491 250.708,30.921 250.97,30.79 C251.229,30.659 252.607,30.609 252.782,30.073 C252.956,29.536 252.01,28.603 251.814,28.449 C251.622,28.296 252.02,27.101 252.278,26.973 C252.535,26.844 252.893,26.878 252.893,26.878 L255.822,17.88 C256.9,18.094 257.126,17.625 257.336,16.977 C257.465,16.584 257.403,16.191 257.209,15.872 C264.63,18.605 271.45,22.637 277.379,27.709 C277.027,27.713 276.681,27.847 276.426,28.127 C275.968,28.631 275.895,29.264 276.345,29.849 L270.019,36.79 C270.019,36.79 270.221,37.191 270.239,37.465 C270.253,37.741 269.501,38.756 269.208,38.627 C268.914,38.499 267.722,38.191 267.344,38.605 C266.969,39.019 267.533,40.144 267.549,40.471 C267.566,40.795 265.691,42.66 265.691,42.66 C265.115,42.531 264.568,42.773 264.145,43.237 L253.492,54.926 C253.309,55.126 253.111,55.294 253.044,55.538 C252.59,55.416 252.16,55.429 251.937,55.673 C251.65,55.989 251.696,56.536 252.03,57.12 C252.03,57.12 249.565,60.261 249.278,60.272 C248.988,60.282 248.681,60.205 248.681,60.205 L238.345,71.55 L243.102,56.931 C243.102,56.931 242.954,56.726 242.822,56.47 L242.822,56.47 Z M266.638,135.867 C266.638,135.669 266.599,135.47 266.502,135.279 C266.19,134.673 265.624,134.383 264.917,134.599 L260.637,126.238 C260.637,126.238 260.192,126.289 259.931,126.208 C259.665,126.124 258.979,125.066 259.202,124.835 C259.425,124.607 260.131,123.595 259.876,123.099 C259.623,122.6 258.369,122.734 258.058,122.637 C257.748,122.538 256.66,120.128 256.66,120.128 C256.982,119.634 256.947,119.035 256.662,118.478 L249.454,104.399 C249.328,104.159 249.243,103.917 249.038,103.764 C249.312,103.384 249.45,102.977 249.298,102.683 C249.103,102.302 248.576,102.153 247.911,102.262 C247.911,102.262 245.837,98.851 245.927,98.578 C246.019,98.304 246.197,98.044 246.197,98.044 L239.202,84.382 L250.741,94.505 C250.741,94.505 250.989,94.448 251.275,94.427 C251.563,94.408 254.363,97.244 254.363,97.244 C254.088,97.871 254.056,98.475 254.38,98.761 C254.632,98.981 255.127,98.876 255.569,98.698 C255.664,98.929 255.907,99.038 256.108,99.217 L267.996,109.649 C268.469,110.065 269.001,110.286 269.558,110.093 C269.558,110.093 271.642,111.752 271.661,112.042 C271.677,112.335 271.182,113.62 271.604,113.993 C272.027,114.364 273.26,113.862 273.477,113.745 C273.695,113.627 274.636,114.463 274.65,114.752 C274.668,115.04 274.498,115.353 274.498,115.353 L281.61,121.595 C280.989,122.501 281.329,122.895 281.842,123.344 C282.003,123.484 282.186,123.576 282.376,123.629 C277.804,128.449 272.505,132.587 266.638,135.867 L266.638,135.867 Z M276.47,113.213 C276.47,113.213 276.075,113.423 275.8,113.443 C275.523,113.462 274.496,112.731 274.62,112.436 C274.742,112.139 275.026,110.941 274.605,110.572 C274.186,110.203 273.068,110.789 272.745,110.811 C272.42,110.835 270.521,108.996 270.521,108.996 C270.641,108.418 270.388,107.873 269.913,107.461 L258.027,97.028 C257.824,96.85 257.652,96.656 257.406,96.59 C257.521,96.134 257.502,95.707 257.251,95.488 C256.93,95.207 256.385,95.262 255.805,95.608 C255.805,95.608 252.621,93.203 252.605,92.916 C252.588,92.627 252.66,92.319 252.66,92.319 L241.02,82.103 C241.029,82.087 241.034,82.071 241.045,82.055 L255.951,87.021 C255.951,87.021 256.156,86.873 256.413,86.742 C256.671,86.612 260.352,88.139 260.352,88.139 C260.339,88.823 260.546,89.392 260.955,89.529 C261.271,89.636 261.688,89.344 262.026,89.01 C262.203,89.186 262.469,89.193 262.725,89.279 L277.729,94.28 C278.325,94.479 278.902,94.477 279.341,94.082 C279.341,94.082 281.907,94.802 282.034,95.065 C282.164,95.328 282.206,96.705 282.74,96.883 C283.274,97.06 284.215,96.12 284.369,95.927 C284.526,95.734 285.715,96.139 285.845,96.399 C285.97,96.658 285.936,97.015 285.936,97.015 L294.912,100.006 C294.691,101.083 295.16,101.313 295.804,101.527 C295.956,101.578 296.104,101.594 296.252,101.592 C293.699,108.29 290.086,114.488 285.6,119.967 C285.529,119.777 285.418,119.602 285.254,119.456 C284.74,119.006 284.107,118.945 283.529,119.407 L276.47,113.213 L276.47,113.213 Z M297.855,96.859 C297.735,96.758 297.6,96.674 297.44,96.62 C296.795,96.405 296.185,96.596 295.832,97.244 L286.923,94.275 C286.923,94.275 286.641,94.624 286.394,94.747 C286.148,94.873 284.916,94.6 284.916,94.277 C284.914,93.956 284.711,92.742 284.18,92.566 C283.649,92.39 282.85,93.362 282.559,93.507 C282.267,93.656 279.804,92.699 279.804,92.699 C279.687,92.119 279.243,91.717 278.649,91.52 L263.644,86.518 C263.387,86.433 263.155,86.318 262.902,86.355 C262.831,85.891 262.645,85.504 262.331,85.399 C261.928,85.265 261.446,85.529 261.045,86.072 C261.045,86.072 257.177,85.09 257.05,84.832 C256.924,84.572 256.869,84.261 256.869,84.261 L241.986,79.301 C241.997,79.226 242,79.149 242.011,79.075 L257.436,78.304 C257.436,78.304 257.573,78.091 257.766,77.876 C257.957,77.661 261.943,77.748 261.943,77.748 C262.181,78.389 262.58,78.846 263.01,78.823 C263.346,78.808 263.627,78.386 263.82,77.951 C264.05,78.051 264.3,77.962 264.568,77.95 L280.365,77.162 C280.992,77.13 281.53,76.919 281.798,76.392 C281.798,76.392 284.447,76.131 284.663,76.33 C284.877,76.526 285.418,77.794 285.98,77.768 C286.543,77.739 287.077,76.521 287.151,76.285 C287.226,76.048 288.483,75.994 288.695,76.19 C288.906,76.386 289.005,76.731 289.005,76.731 L298.453,76.259 C298.638,77.343 299.159,77.386 299.838,77.352 C300.116,77.338 300.36,77.243 300.563,77.095 C300.666,83.942 299.717,90.585 297.855,96.859 L297.855,96.859 Z M282.535,55.992 C282.512,55.747 283.649,55.206 283.92,55.303 C284.192,55.399 284.415,55.68 284.415,55.68 L292.932,51.559 C293.524,52.484 294.021,52.321 294.633,52.024 C294.826,51.932 294.977,51.801 295.1,51.648 C297.89,58.071 299.697,65.04 300.325,72.386 C300.109,72.249 299.856,72.173 299.582,72.187 C298.901,72.221 298.402,72.62 298.311,73.351 L288.931,73.819 C288.931,73.819 288.793,74.246 288.61,74.451 C288.427,74.658 287.178,74.849 287.061,74.551 C286.942,74.251 286.311,73.194 285.754,73.222 C285.195,73.25 284.803,74.447 284.585,74.689 C284.369,74.932 281.725,74.934 281.725,74.934 C281.406,74.437 280.848,74.223 280.22,74.255 L264.423,75.042 C264.152,75.056 263.894,75.034 263.674,75.161 C263.438,74.752 263.125,74.459 262.794,74.476 C262.368,74.498 262.015,74.918 261.841,75.569 C261.841,75.569 257.879,76.061 257.667,75.865 C257.454,75.67 257.292,75.398 257.292,75.398 L242.102,76.156 L255.964,69.447 C255.964,69.447 256.01,69.197 256.101,68.922 C256.193,68.65 259.897,67.175 259.897,67.175 C260.366,67.673 260.912,67.938 261.3,67.75 C261.6,67.605 261.696,67.105 261.705,66.63 C261.956,66.633 262.152,66.452 262.393,66.336 L276.629,59.447 C277.193,59.175 277.607,58.77 277.646,58.181 C277.646,58.181 279.986,56.906 280.262,57.003 C280.536,57.104 281.528,58.059 282.036,57.813 C282.542,57.568 282.559,56.239 282.535,55.992 L282.535,55.992 Z M292.382,47.369 C291.766,47.665 291.465,48.227 291.665,48.939 L283.211,53.028 C283.211,53.028 283.251,53.474 283.163,53.736 C283.072,53.998 282.001,54.66 281.774,54.431 C281.55,54.202 280.558,53.474 280.052,53.717 C279.55,53.961 279.655,55.216 279.55,55.526 C279.445,55.832 277.013,56.867 277.013,56.867 C276.525,56.533 275.926,56.554 275.363,56.828 L261.125,63.715 C260.881,63.833 260.637,63.915 260.478,64.117 C260.104,63.835 259.701,63.688 259.403,63.831 C259.019,64.017 258.859,64.542 258.953,65.208 C258.953,65.208 255.496,67.207 255.223,67.109 C254.952,67.012 254.695,66.826 254.695,66.826 L240.567,73.663 C240.536,73.62 240.51,73.576 240.476,73.532 L250.833,62.165 C250.833,62.166 250.782,61.916 250.765,61.628 C250.752,61.341 253.639,58.593 253.639,58.593 C254.26,58.882 254.863,58.924 255.155,58.607 C255.382,58.359 255.284,57.86 255.114,57.415 C255.348,57.325 255.463,57.084 255.643,56.887 L266.297,45.198 C266.719,44.733 266.951,44.205 266.77,43.644 C266.77,43.644 268.469,41.59 268.759,41.578 C269.052,41.568 270.327,42.087 270.706,41.67 C271.088,41.253 270.608,40.012 270.495,39.793 C270.38,39.574 271.234,38.649 271.523,38.638 C271.811,38.627 272.124,38.804 272.124,38.804 L278.497,31.811 C279.391,32.448 279.788,32.113 280.25,31.61 C280.503,31.331 280.614,30.987 280.599,30.647 C285.538,35.465 289.735,41.058 292.992,47.248 C292.786,47.239 292.58,47.273 292.382,47.369 L292.382,47.369 Z M253.244,14.555 C252.867,14.688 252.553,14.967 252.42,15.376 C252.209,16.023 252.404,16.63 253.055,16.979 L250.145,25.91 C250.145,25.91 250.494,26.19 250.623,26.434 C250.75,26.678 250.483,27.912 250.163,27.916 C249.841,27.919 248.63,28.132 248.454,28.663 C248.283,29.195 249.259,29.988 249.409,30.278 C249.559,30.567 248.619,33.038 248.619,33.038 C248.039,33.158 247.641,33.604 247.446,34.2 L242.549,49.24 C242.464,49.497 242.352,49.73 242.39,49.983 C241.926,50.055 241.54,50.246 241.437,50.56 C241.307,50.966 241.574,51.445 242.119,51.841 C242.119,51.841 241.165,55.715 240.907,55.845 C240.647,55.973 240.338,56.03 240.338,56.03 L235.592,70.599 C235.493,70.584 235.395,70.564 235.297,70.553 L234.242,55.16 C234.242,55.16 234.027,55.025 233.808,54.838 C233.59,54.648 233.603,50.664 233.603,50.664 C234.239,50.414 234.688,50.006 234.658,49.578 C234.637,49.243 234.211,48.967 233.772,48.784 C233.868,48.552 233.774,48.302 233.756,48.035 L232.678,32.256 C232.633,31.63 232.412,31.096 231.88,30.84 C231.88,30.84 231.572,28.194 231.765,27.975 C231.959,27.756 233.217,27.193 233.178,26.63 C233.139,26.069 231.911,25.556 231.675,25.488 C231.437,25.417 231.359,24.161 231.551,23.945 C231.743,23.729 232.087,23.627 232.087,23.627 L231.441,14.188 C232.519,13.982 232.554,13.462 232.508,12.783 C232.481,12.404 232.309,12.083 232.048,11.86 C239.402,11.6 246.533,12.557 253.244,14.555 L253.244,14.555 Z M229.813,24.064 C230.024,24.244 230.238,25.486 229.941,25.61 C229.645,25.733 228.599,26.383 228.638,26.941 C228.675,27.501 229.881,27.87 230.127,28.083 C230.376,28.294 230.426,30.939 230.426,30.939 C229.933,31.266 229.728,31.829 229.773,32.455 L230.852,48.233 C230.87,48.504 230.852,48.763 230.982,48.981 C230.58,49.224 230.293,49.543 230.316,49.874 C230.345,50.299 230.772,50.644 231.425,50.807 C231.425,50.807 231.989,54.758 231.799,54.976 C231.607,55.19 231.339,55.359 231.339,55.359 L232.391,70.741 C232.375,70.746 232.357,70.749 232.343,70.753 L232.366,70.739 L224.959,56.651 C224.959,56.651 224.644,56.647 224.366,56.565 C224.089,56.481 222.496,52.821 222.496,52.821 C222.969,52.339 223.149,51.822 222.951,51.444 C222.797,51.15 222.385,51.03 221.916,51.035 C221.911,50.78 221.761,50.57 221.635,50.33 L214.273,36.331 C213.983,35.774 213.515,35.402 212.923,35.382 C212.923,35.382 211.582,33.104 211.679,32.794 C211.776,32.485 212.607,31.537 212.348,31.043 C212.086,30.548 210.854,30.542 210.538,30.593 C210.222,30.644 209.753,29.473 209.836,29.209 C209.919,28.945 210.218,28.611 210.218,28.611 L205.846,20.298 C206.43,19.846 206.518,19.214 206.201,18.611 C206.118,18.457 206.011,18.331 205.885,18.227 C212.586,15.035 219.932,12.933 227.709,12.153 C227.465,12.413 227.321,12.754 227.349,13.136 C227.395,13.814 227.801,14.306 228.537,14.385 L229.177,23.754 C229.177,23.754 229.605,23.884 229.813,24.064 L229.813,24.064 Z M191.772,43.262 C191.773,43.262 192.06,43.051 192.347,43.027 C192.637,43.002 193.594,43.819 193.507,44.05 C193.422,44.283 193.094,45.571 193.519,45.94 C193.947,46.307 195.152,45.641 195.444,45.616 C195.734,45.593 197.664,47.429 197.664,47.429 C197.553,48.009 197.844,48.504 198.318,48.915 L210.292,59.251 C210.494,59.424 210.639,59.65 210.88,59.712 C210.765,60.174 210.728,60.681 210.982,60.899 C211.309,61.181 211.903,61.065 212.485,60.707 C212.485,60.707 215.682,63.087 215.701,63.376 C215.721,63.664 215.697,63.917 215.697,63.917 L227.334,73.965 L212.576,69.271 C212.576,69.271 212.348,69.492 212.091,69.626 C211.838,69.761 208.133,68.276 208.133,68.276 C208.129,67.602 207.895,67.105 207.489,66.978 C207.173,66.876 206.798,67.079 206.465,67.412 C206.283,67.235 206.028,67.191 205.769,67.107 L190.696,62.316 C190.099,62.125 189.503,62.19 189.067,62.59 C189.067,62.59 186.514,61.913 186.365,61.622 C186.219,61.333 186.143,60.074 185.611,59.905 C185.077,59.737 184.196,60.599 184.009,60.857 C183.816,61.115 182.658,60.611 182.534,60.365 C182.41,60.12 182.388,59.673 182.388,59.673 L173.436,56.828 C173.531,56.095 173.152,55.583 172.506,55.375 C172.378,55.337 172.254,55.324 172.131,55.322 C174.602,48.568 178.145,42.305 182.573,36.756 C182.644,36.877 182.732,36.991 182.848,37.09 C183.36,37.534 183.799,37.821 184.608,37.079 L191.772,43.262 L191.772,43.262 Z M186.769,100.517 C186.808,100.835 185.626,101.274 185.366,101.182 C185.107,101.091 184.778,100.786 184.778,100.786 L176.352,104.934 C175.914,104.339 175.288,104.233 174.676,104.534 C174.331,104.704 174.104,105.003 174.005,105.346 C171.076,98.88 169.148,91.839 168.435,84.406 C168.572,84.443 168.717,84.464 168.869,84.454 C169.548,84.415 170.059,84.314 170.127,83.216 L179.569,82.649 C179.569,82.649 179.628,82.295 179.817,82.078 C180.009,81.86 181.264,81.775 181.361,82.002 C181.462,82.23 182.127,83.381 182.689,83.348 C183.254,83.314 183.65,81.993 183.841,81.772 C184.034,81.554 186.697,81.522 186.697,81.522 C187.019,82.016 187.577,82.167 188.205,82.129 L203.992,81.179 C204.26,81.163 204.52,81.225 204.737,81.1 C204.975,81.51 205.303,81.9 205.637,81.878 C206.067,81.853 206.414,81.355 206.58,80.693 C206.58,80.693 210.531,80.167 210.745,80.36 C210.959,80.555 211.12,80.751 211.12,80.751 L226.771,79.811 C226.791,79.903 226.81,79.996 226.834,80.086 L213.2,86.796 C213.2,86.796 213.189,87.112 213.098,87.386 C213.008,87.662 209.308,89.156 209.308,89.156 C208.839,88.672 208.325,88.477 207.943,88.664 C207.646,88.811 207.514,89.219 207.507,89.689 C207.25,89.686 207.036,89.831 206.792,89.951 L192.603,96.935 C192.041,97.212 191.657,97.671 191.62,98.261 C191.62,98.261 189.307,99.543 189.001,99.436 C188.691,99.33 187.768,98.474 187.264,98.72 C186.763,98.968 186.726,100.198 186.769,100.517 L186.769,100.517 Z M170.581,60.127 C170.689,60.199 170.806,60.263 170.938,60.305 C171.584,60.512 172.103,60.602 172.553,59.603 L181.57,62.468 C181.57,62.468 181.752,62.16 182.009,62.025 C182.264,61.89 183.466,62.263 183.477,62.511 C183.489,62.758 183.696,64.072 184.23,64.244 C184.768,64.414 185.613,63.324 185.873,63.187 C186.13,63.052 188.627,63.98 188.627,63.98 C188.751,64.559 189.217,64.898 189.814,65.089 L204.887,69.881 C205.142,69.961 205.363,70.112 205.61,70.074 C205.686,70.544 205.851,71.024 206.173,71.124 C206.583,71.255 207.082,70.915 207.477,70.356 C207.477,70.356 211.352,71.29 211.484,71.545 C211.615,71.803 211.693,72.045 211.693,72.045 L226.734,76.828 C226.729,76.852 226.724,76.875 226.721,76.898 L210.947,77.847 C210.947,77.847 210.814,78.134 210.623,78.351 C210.435,78.569 206.443,78.515 206.443,78.515 C206.198,77.888 205.8,77.509 205.375,77.533 C205.045,77.554 204.766,77.879 204.578,78.309 C204.343,78.21 204.088,78.259 203.817,78.275 L188.029,79.225 C187.403,79.26 186.873,79.535 186.609,80.066 C186.609,80.066 183.98,80.353 183.74,80.135 C183.496,79.919 182.975,78.771 182.417,78.804 C181.86,78.838 181.349,79.959 181.264,80.269 C181.18,80.579 179.918,80.525 179.713,80.339 C179.508,80.155 179.325,79.747 179.325,79.747 L169.951,80.311 C169.776,79.593 169.238,79.251 168.559,79.292 C168.409,79.301 168.271,79.342 168.142,79.397 C168,72.734 168.858,66.26 170.581,60.127 L170.581,60.127 Z M176.959,109.173 C177.571,108.872 178.004,108.582 177.64,107.546 L186.128,103.367 C186.128,103.367 186.045,103.018 186.137,102.745 C186.227,102.47 187.35,101.907 187.531,102.078 C187.709,102.247 188.77,103.053 189.274,102.804 C189.779,102.554 189.636,101.184 189.728,100.907 C189.819,100.63 192.264,99.57 192.264,99.57 C192.752,99.9 193.325,99.824 193.89,99.546 L208.078,92.562 C208.318,92.442 208.58,92.399 208.734,92.2 C209.114,92.487 209.565,92.719 209.866,92.57 C210.254,92.379 210.381,91.787 210.274,91.111 C210.274,91.111 213.717,89.1 213.989,89.192 C214.262,89.289 214.484,89.408 214.484,89.408 L227.975,82.77 L217.712,94.176 C217.712,94.176 217.818,94.473 217.838,94.761 C217.855,95.05 214.975,97.813 214.975,97.813 C214.358,97.538 213.81,97.545 213.525,97.862 C213.303,98.109 213.333,98.538 213.501,98.977 C213.262,99.069 213.119,99.282 212.935,99.485 L202.357,111.242 C201.938,111.71 201.751,112.278 201.936,112.839 C201.936,112.839 200.267,114.889 199.94,114.904 C199.616,114.919 198.438,114.469 198.065,114.884 C197.692,115.3 198.113,116.456 198.272,116.736 C198.43,117.017 197.492,117.863 197.216,117.875 C196.942,117.888 196.524,117.725 196.524,117.725 L190.244,124.706 C189.616,124.318 188.992,124.452 188.537,124.959 C188.376,125.138 188.282,125.348 188.238,125.565 C183.348,120.824 179.174,115.323 175.919,109.235 C176.246,109.354 176.616,109.342 176.959,109.173 L176.959,109.173 Z M216.455,158.516 C216.366,159.238 215.398,161.472 215.158,163.452 C214.859,165.866 215.191,168.766 215.431,169.34 C215.558,169.649 215.128,173.054 214.7,176.139 L202.731,173.887 C202.931,173.639 203.096,173.363 203.216,173.059 C203.58,172.121 203.469,171.083 202.986,170.111 C204.192,169.734 205.133,168.984 205.551,167.917 C206.02,166.717 205.727,165.358 204.893,164.157 C207.191,161.372 209.679,157.205 211.92,152.24 C213.429,152.694 214.953,153.111 216.499,153.475 C216.456,156.083 216.501,158.135 216.455,158.516 L216.455,158.516 Z M217.042,174.763 C217.284,172.631 217.533,170.645 217.705,169.916 C217.733,169.962 217.758,170.006 217.77,170.044 C217.832,170.249 217.438,172.558 217.042,174.763 L217.042,174.763 Z M220.151,156.695 C219.992,156.998 219.838,157.33 219.687,157.678 C219.893,156.845 220.19,155.669 220.512,154.31 C220.526,154.313 220.539,154.315 220.553,154.316 L220.151,156.695 L220.151,156.695 Z" id="Fill-29" fill="#FFFFFF" sketch:type="MSShapeGroup"></path>
                <path d="M260.187,197.221 L98.196,166.233 L98.196,166.979 L97.089,170.336 L121.17,174.876 C121.14,175.028 121.104,175.182 121.071,175.335 L121.06,175.333 C120.623,177.175 119.903,178.999 119.903,178.999 C118.828,179.199 118.084,179.654 117.947,180.302 C117.82,180.907 118.243,181.567 119.028,182.152 C117.786,182.083 116.647,182.927 116.384,184.179 C116.106,185.504 117.641,186.677 118.187,187.167 C118.732,187.655 117.546,193.122 116.642,194.427 C115.74,195.731 113.205,202.19 111.78,208.975 C110.017,217.375 109.976,225.994 110.141,229.232 C110.305,232.466 108.598,235.771 108.598,235.771 C108.23,236.489 107.906,237.32 107.65,238.229 C106.569,238.376 105.815,238.783 105.686,239.385 C105.559,240.003 106.122,240.701 107.105,241.284 C106.973,243.055 107.864,244.747 107.683,245.61 C107.503,246.474 106.389,247.491 105.975,248.892 C104.774,249.113 103.892,249.71 103.713,250.558 C103.532,251.417 104.926,252.319 105.158,253.023 C105.39,253.73 104.683,255.28 104.683,255.28 C103.933,256.094 103.426,257.782 103.044,258.641 C102.66,259.5 101.838,261.266 101.666,262.088 L101.325,263.7 C100.909,265.676 102.174,267.617 104.153,268.033 L104.869,268.181 C106.847,268.6 108.787,267.331 109.203,265.354 L109.539,263.745 C109.714,262.921 109.645,259.647 109.668,260.031 C109.687,260.419 109.877,257.342 109.516,256.296 C109.516,256.296 109.447,254.543 109.992,254.039 C110.536,253.535 112.125,253.223 112.305,252.362 C112.485,251.515 111.916,250.613 110.908,249.928 C111.092,248.483 110.483,247.093 110.662,246.236 C110.843,245.379 112.344,244.185 112.935,242.508 C114.07,242.37 114.866,241.958 114.997,241.339 C115.123,240.738 114.596,240.065 113.667,239.492 C113.798,238.56 113.835,237.667 113.789,236.862 C113.789,236.862 114.092,233.321 115.333,230.322 C116.575,227.322 120.219,219.518 121.983,211.12 C123.411,204.334 123.568,197.501 123.444,195.858 C123.32,194.215 124.074,189.105 124.988,188.596 C125.903,188.085 127.564,187.91 127.842,186.588 C128.105,185.333 127.401,184.104 126.237,183.666 C127.192,183.448 127.844,183.014 127.971,182.409 C128.107,181.761 127.61,181.044 126.706,180.429 C126.706,180.429 126.819,178.458 127.125,176.638 L127.133,176.64 C127.168,176.43 127.203,176.222 127.244,176.02 L214.672,192.499 C214.656,192.595 214.639,192.699 214.622,192.798 L214.67,192.807 L214.562,192.79 C213.89,197.079 213.159,199.374 213.159,199.374 C212.783,199.992 212.433,200.72 212.118,201.536 C211.107,201.799 210.418,202.294 210.309,202.945 C210.213,203.506 210.57,204.082 211.228,204.584 C211.163,204.89 211.106,205.202 211.053,205.517 C210.638,207.984 211.173,207.468 211.552,209.173 L210.752,213.935 C210.198,215.406 209.718,217.189 209.391,219.138 C208.915,221.977 208.859,224.585 209.155,226.449 C208.527,226.678 208.035,227.219 207.921,227.907 C207.81,228.576 208.082,229.212 208.578,229.62 C208.987,229.225 209.53,228.956 210.149,228.903 C211.216,228.811 212.182,229.372 212.633,230.242 C213.25,230.007 213.729,229.476 213.844,228.8 C213.959,228.111 213.669,227.454 213.143,227.049 C214.037,225.367 214.84,222.866 215.313,220.029 C215.641,218.085 215.768,216.245 215.723,214.681 L216.521,209.921 C217.438,208.411 217.705,209.049 218.121,206.583 C218.176,206.268 218.22,205.952 218.259,205.641 C219.051,205.363 219.576,204.916 219.67,204.357 C219.778,203.704 219.284,203.03 218.409,202.484 C218.377,201.617 218.283,200.819 218.128,200.122 C218.128,200.122 218.085,197.8 218.823,193.596 L218.887,193.608 C218.904,193.507 218.924,193.403 218.941,193.304 L230.422,195.467 C230.487,195.641 230.552,195.823 230.611,196.011 L230.73,196.031 C231.151,197.588 231.354,199.241 231.354,199.241 C230.629,199.829 230.258,200.473 230.419,201.012 C230.572,201.517 231.154,201.839 231.982,201.958 C231.023,202.411 230.515,203.504 230.827,204.549 C231.158,205.652 232.783,205.906 233.391,206.05 C233.997,206.194 235.332,210.767 235.187,212.112 C235.042,213.455 235.77,219.316 237.465,224.974 C239.558,231.976 243.033,238.44 244.473,240.796 C245.911,243.15 245.978,246.316 245.978,246.316 C245.994,247.004 246.092,247.758 246.268,248.54 C245.518,249.092 245.12,249.702 245.269,250.203 C245.425,250.719 246.129,251.01 247.103,251.049 C247.722,252.427 249.079,253.331 249.295,254.049 C249.509,254.768 249.09,255.984 249.348,257.2 C248.539,257.854 248.124,258.658 248.332,259.366 C248.55,260.083 249.96,260.19 250.42,260.624 C250.878,261.059 250.98,262.506 250.98,262.506 C250.75,263.418 251.058,264.888 251.118,265.686 C251.182,266.485 251.284,268.141 251.489,268.827 L251.893,270.169 C252.383,271.818 254.119,272.755 255.769,272.263 L256.365,272.083 C258.014,271.592 258.951,269.854 258.457,268.206 L258.054,266.863 C258.038,266.808 258.012,266.739 257.981,266.664 L258.456,266.505 C259.994,265.999 260.857,264.366 260.389,262.866 L260.003,261.642 C259.81,261.016 258.505,258.832 258.668,259.082 C258.832,259.336 257.781,257.182 257.129,256.619 C257.129,256.619 256.407,255.464 256.593,254.903 C256.78,254.345 257.768,253.502 257.56,252.847 C257.36,252.203 256.62,251.824 255.654,251.762 C255.227,250.71 254.271,250.014 254.066,249.365 C253.861,248.714 254.448,247.307 254.217,245.938 C254.955,245.393 255.351,244.796 255.203,244.326 C255.063,243.869 254.437,243.624 253.567,243.61 C253.303,242.927 252.986,242.308 252.644,241.783 C252.644,241.783 251.495,239.272 251.208,236.749 C250.922,234.227 250.466,227.497 248.471,221.12 C246.859,215.963 244.346,211.287 243.629,210.226 C242.913,209.166 241.474,205.411 241.915,204.704 C242.355,203.992 243.445,203.213 243.132,202.207 C242.835,201.254 241.873,200.705 240.895,200.874 C241.475,200.344 241.764,199.791 241.618,199.332 C241.463,198.84 240.842,198.554 239.976,198.5 C239.976,198.5 239.782,198.104 239.529,197.532 L241.314,197.837 C241.036,197.721 240.685,197.646 240.272,197.618 C240.272,197.618 240.214,197.498 240.122,197.296 L259.411,200.933 L260.187,197.221 L260.187,197.221 Z M251.753,252.613 C251.766,252.752 251.788,252.892 251.818,253.034 C251.794,253.054 251.772,253.076 251.748,253.099 C251.733,252.954 251.733,252.795 251.753,252.613 L251.753,252.613 Z" id="Fill-30" fill="#FFFFFF" sketch:type="MSShapeGroup"></path>
                <path d="M235.199,252.97 C232.727,251.895 228.348,251.02 223.326,250.725 C223.128,250.713 222.93,250.703 222.735,250.694 C222.109,249.981 221.205,249.508 220.178,249.449 L218.522,249.35 C217.232,249.273 216.057,249.868 215.342,250.827 C214.403,250.92 213.54,251.042 212.768,251.192 L204.611,250.712 C204.151,250.614 203.656,250.517 203.154,250.419 L202.115,251.472 C196.304,251.107 189.213,250.919 181.553,250.979 C175.921,251.023 170.604,251.196 165.864,251.464 L165.777,250.618 L165.742,250.287 C165.742,250.287 167.077,248.947 168.784,247.262 C167.832,247.207 167.247,247.172 167.247,247.172 C162.08,247.154 157.618,247.31 154.254,247.624 L147.198,247.207 C146.138,246.867 144.88,246.559 143.475,246.297 C142.861,245.357 141.823,244.71 140.606,244.636 L138.953,244.539 C137.924,244.478 136.972,244.842 136.265,245.476 C131.45,245.233 127.212,245.586 124.711,246.339 L113.087,245.653 L112.866,249.276 L124.492,249.962 C126.883,251 131.047,251.852 135.857,252.177 C136.481,252.887 137.388,253.361 138.413,253.422 L140.067,253.519 C141.282,253.592 142.393,253.067 143.116,252.208 C144.542,252.112 145.828,251.953 146.923,251.741 L153.978,252.156 C160.365,253.524 170.873,254.787 182.792,255.491 C194.71,256.193 197.83,255.852 204.337,255.241 L212.494,255.725 C213.239,255.963 214.081,256.188 215.006,256.391 C215.597,257.425 216.691,258.155 217.986,258.231 L219.639,258.328 C220.668,258.39 221.621,258.026 222.328,257.391 C222.523,257.404 222.72,257.419 222.919,257.431 C227.942,257.727 232.393,257.373 234.98,256.594 L245.874,257.239 L246.092,253.613 L235.199,252.97" id="Fill-31" fill="#FFFFFF" sketch:type="MSShapeGroup"></path>
                <path d="M214.133,234.812 L211.037,234.85 L211.044,234.94 L209.548,235.043 L209.535,234.867 L200.87,234.97 L196.334,239.783 C196.334,239.783 177.831,239.63 177.221,239.756 C176.61,239.881 167.53,249.426 167.53,249.426 L167.565,249.756 L167.652,250.603 C172.173,250.35 177.247,250.193 182.617,250.167 C189.929,250.131 196.692,250.342 202.241,250.724 L214.72,237.473 L214.919,237.26 C215.558,234.966 214.133,234.812 214.133,234.812" id="Fill-32" fill="#FFFFFF" sketch:type="MSShapeGroup"></path>
                <path d="M140.918,328.844 C140.918,328.411 141.103,328.225 141.537,328.225 L148.737,328.225 C149.025,328.225 149.149,328.411 149.149,328.844 L149.149,329.174 C149.149,329.607 149.025,329.793 148.737,329.793 L142.733,329.793 L142.733,334.497 L148.118,334.497 C148.407,334.497 148.53,334.682 148.53,335.116 L148.53,335.446 C148.53,335.879 148.407,336.065 148.118,336.065 L142.733,336.065 L142.733,341.098 L148.758,341.098 C149.046,341.098 149.17,341.284 149.17,341.717 L149.17,342.047 C149.17,342.481 149.046,342.666 148.758,342.666 L141.537,342.666 C141.103,342.666 140.918,342.481 140.918,342.047 L140.918,328.844" id="Fill-33" fill="#FFFFFF" sketch:type="MSShapeGroup"></path>
                <path d="M151.664,340.17 C151.933,340.17 153.088,341.222 155.212,341.222 C156.78,341.222 157.915,340.252 157.915,338.726 C157.915,335.157 151.21,336.745 151.21,331.897 C151.21,329.607 153.025,328.101 155.79,328.101 C156.966,328.101 159.111,328.617 159.111,329.36 C159.111,329.669 158.657,330.453 158.451,330.453 C158.141,330.453 157.379,329.669 155.749,329.669 C154.201,329.669 153.088,330.412 153.088,331.98 C153.088,334.992 159.792,333.609 159.792,338.726 C159.792,341.263 157.997,342.79 155.212,342.79 C152.799,342.79 150.942,341.841 150.942,341.284 C150.942,340.954 151.437,340.17 151.664,340.17" id="Fill-34" fill="#FFFFFF" sketch:type="MSShapeGroup"></path>
                <path d="M165.278,329.793 L161.317,329.793 C161.028,329.793 160.905,329.607 160.905,329.174 L160.905,328.844 C160.905,328.411 161.028,328.225 161.317,328.225 L170.993,328.225 C171.281,328.225 171.405,328.411 171.405,328.844 L171.405,329.174 C171.405,329.607 171.281,329.793 170.993,329.793 L167.094,329.793 L167.094,342.253 C167.094,342.543 166.847,342.707 166.268,342.707 L166.103,342.707 C165.526,342.707 165.278,342.543 165.278,342.253 L165.278,329.793" id="Fill-35" fill="#FFFFFF" sketch:type="MSShapeGroup"></path>
                <path d="M172.868,340.892 C172.868,340.603 173.116,340.438 173.693,340.438 L174.044,340.438 C174.622,340.438 174.87,340.603 174.87,340.892 L174.87,342.253 C174.87,342.543 174.622,342.707 174.044,342.707 L173.693,342.707 C173.116,342.707 172.868,342.543 172.868,342.253 L172.868,340.892" id="Fill-36" fill="#FFFFFF" sketch:type="MSShapeGroup"></path>
                <path d="M181.738,341.799 C181.738,341.366 181.862,341.181 182.151,341.181 L185.741,341.181 L185.741,330.061 L182.089,330.68 C181.801,330.68 181.677,330 181.677,329.628 C181.677,329.401 181.801,329.298 182.048,329.236 L186.834,328.184 C187.144,328.184 187.474,328.37 187.474,328.617 L187.474,341.181 L190.527,341.181 C190.815,341.181 190.939,341.366 190.939,341.799 L190.939,342.047 C190.939,342.481 190.815,342.666 190.527,342.666 L182.151,342.666 C181.862,342.666 181.738,342.481 181.738,342.047 L181.738,341.799" id="Fill-37" fill="#FFFFFF" sketch:type="MSShapeGroup"></path>
                <path d="M194.651,341.387 C197.457,340.232 199.087,338.21 199.747,335.899 C199.107,336.271 198.22,336.58 196.962,336.58 C194.774,336.58 193.021,334.951 193.021,332.413 C193.021,329.793 194.981,328.122 197.477,328.122 C200.407,328.122 201.872,330.041 201.872,333.321 C201.872,339.283 196.549,342.707 195.167,342.707 C194.733,342.707 194.486,341.861 194.486,341.614 C194.486,341.552 194.507,341.449 194.651,341.387 L194.651,341.387 Z M200.056,334.394 C200.098,333.981 200.139,333.547 200.139,333.156 C200.139,330.268 198.674,329.607 197.374,329.607 C196.261,329.607 194.774,330.433 194.774,332.331 C194.774,334.352 196.116,335.095 197.477,335.095 C198.571,335.095 199.478,334.724 200.056,334.394 L200.056,334.394 Z" id="Fill-38" fill="#FFFFFF" sketch:type="MSShapeGroup"></path>
                <path d="M206.264,334.827 C205.294,334.249 204.552,333.238 204.552,331.67 C204.552,329.318 206.306,328.101 208.472,328.101 C210.638,328.101 212.433,329.318 212.433,331.67 C212.433,333.362 211.545,334.29 210.431,334.806 C211.772,335.404 212.907,336.25 212.907,338.499 C212.907,341.449 210.905,342.79 208.43,342.79 C205.954,342.79 203.974,341.449 203.974,338.499 C203.974,336.312 205.006,335.425 206.264,334.827 L206.264,334.827 Z M208.43,341.304 C209.894,341.304 211.133,340.376 211.133,338.499 C211.133,336.415 209.317,336.085 207.646,335.446 C206.594,336.065 205.748,336.91 205.748,338.499 C205.748,340.376 206.966,341.304 208.43,341.304 L208.43,341.304 Z M210.699,331.67 C210.699,330.206 209.688,329.586 208.472,329.586 C207.254,329.586 206.284,330.206 206.284,331.67 C206.284,333.321 207.522,333.774 208.925,334.249 C209.915,333.671 210.699,332.887 210.699,331.67 L210.699,331.67 Z" id="Fill-39" fill="#FFFFFF" sketch:type="MSShapeGroup"></path>
                <path d="M216.722,341.387 C219.527,340.232 221.157,338.21 221.817,335.899 C221.178,336.271 220.29,336.58 219.032,336.58 C216.845,336.58 215.092,334.951 215.092,332.413 C215.092,329.793 217.052,328.122 219.548,328.122 C222.477,328.122 223.942,330.041 223.942,333.321 C223.942,339.283 218.619,342.707 217.237,342.707 C216.804,342.707 216.557,341.861 216.557,341.614 C216.557,341.552 216.577,341.449 216.722,341.387 L216.722,341.387 Z M222.126,334.394 C222.168,333.981 222.209,333.547 222.209,333.156 C222.209,330.268 220.744,329.607 219.444,329.607 C218.331,329.607 216.845,330.433 216.845,332.331 C216.845,334.352 218.186,335.095 219.548,335.095 C220.642,335.095 221.549,334.724 222.126,334.394 L222.126,334.394 Z" id="Fill-40" fill="#FFFFFF" sketch:type="MSShapeGroup"></path>
            </g>
        </g>
    </g>
</svg>