<?xml version="1.0" encoding="UTF-8" standalone="no"?>
<svg width="425px" height="70px" viewBox="0 0 425 70" version="1.1" xmlns="http://www.w3.org/2000/svg" xmlns:xlink="http://www.w3.org/1999/xlink" xmlns:sketch="http://www.bohemiancoding.com/sketch/ns">
    <!-- Generator: Sketch 3.2.2 (9983) - http://www.bohemiancoding.com/sketch -->
    <title>Artboard 3</title>
    <desc>Created with Sketch.</desc>
    <defs></defs>
    <g id="Page-1" stroke="none" stroke-width="1" fill="none" fill-rule="evenodd" sketch:type="MSPage">
        <g id="Artboard-3" sketch:type="MSArtboardGroup" fill="#000000">
            <g id="Imported-Layers" sketch:type="MSLayerGroup" transform="translate(0.000000, 3.000000)">
                <path d="M178.083,33.544 C178.497,33.908 178.878,34.278 179.225,34.653 L106.869,34.482 L89.385,33.729 L91.773,33.651 L178.083,33.544 M178.813,31.543 L91.739,31.651 L36.592,33.459 L106.824,36.481 L182.972,36.662 C182.299,35.155 181.056,33.367 178.813,31.543" id="Fill-2" sketch:type="MSShapeGroup"></path>
                <path d="M358.581,30.246 C371.649,30.246 384.925,31.279 398.134,33.321 C395.099,34.441 390.623,35.713 384.373,36.651 C384.477,36.616 384.541,36.594 384.566,36.586 L391.1,34.293 L384.35,32.749 C380.002,31.753 374.604,31.249 368.306,31.249 C356.917,31.249 346.572,32.869 346.137,32.939 L337.025,34.384 L345.917,36.842 C346.619,37.035 347.323,37.218 348.031,37.39 C341.335,36.893 334.257,36.103 326.851,35.024 L326.71,35.003 L326.567,35.003 L199.713,34.703 C199.063,34.31 198.426,33.915 197.805,33.519 L321.91,33.365 L322.129,33.365 L322.343,33.317 C322.48,33.287 336.387,30.246 358.581,30.246 L358.581,30.246 Z M358.581,28.246 C335.864,28.246 321.907,31.365 321.907,31.365 L191.468,31.526 C193.904,33.403 196.526,35.135 199.158,36.701 L326.562,37.003 C341.585,39.193 353.955,40.017 364.062,40.017 C394.832,40.017 404.649,32.379 404.649,32.379 C387.116,29.247 371.444,28.246 358.581,28.246 L358.581,28.246 Z M364.906,37.39 C359.451,37.39 353.15,36.765 346.45,34.914 C346.45,34.914 356.944,33.249 368.306,33.249 C373.646,33.249 379.178,33.617 383.904,34.698 C383.904,34.698 376.229,37.39 364.906,37.39 L364.906,37.39 Z" id="Fill-3" sketch:type="MSShapeGroup"></path>
                <path d="M283.559,67.126 C277.117,67.126 270.536,66.716 263.842,65.887 C240.524,62.999 220.178,56.783 203.369,47.412 C195.662,43.115 189.007,37.248 182.571,31.574 C177.315,26.939 171.878,22.146 165.947,18.297 C151.099,8.658 108.913,-11.147 38.035,13.02 C25.899,17.158 13.82,22.441 2.134,28.722 C1.646,28.983 1.041,28.801 0.78,28.315 C0.519,27.828 0.701,27.222 1.187,26.96 C12.97,20.627 25.15,15.496 37.389,11.323 C52.815,6.063 76.685,0 102.906,0 L103.146,0 C128.207,0 149.703,5.564 167.036,16.814 C173.091,20.745 178.583,25.489 183.894,30.172 C190.25,35.776 196.823,41.522 204.343,45.715 C220.926,54.959 241.027,61.07 264.088,63.927 C303.543,68.815 339.063,58.953 364.106,36.186 C365.535,34.888 366.944,33.552 368.356,32.222 C374.575,26.358 381.006,20.291 389.215,16.799 C395.849,13.976 404.346,14.494 411.393,18.151 C417.894,21.527 422.238,26.959 423.625,33.447 C425.581,42.589 421.548,51.352 412.837,56.887 C401.828,63.885 390.312,62.016 383.785,57.062 C383.345,56.728 383.259,56.1 383.593,55.66 C383.928,55.221 384.554,55.135 384.994,55.468 C392.063,60.833 403.071,60.725 411.765,55.198 C419.74,50.13 423.442,42.155 421.67,33.864 C420.409,27.971 416.433,23.02 410.471,19.925 C403.941,16.533 396.097,16.042 389.998,18.636 C382.117,21.988 375.819,27.928 369.727,33.671 C368.308,35.01 366.89,36.348 365.452,37.654 C344.23,56.945 315.651,67.125 283.559,67.126" id="Fill-4" sketch:type="MSShapeGroup"></path>
            </g>
        </g>
    </g>
</svg>